SplineFontDB: 3.0
FontName: WatchGeometries
FullName: WatchGeometries
FamilyName: WatchGeometries
Weight: Medium
Copyright: Created by Mark Shoulson,,, with FontForge 2.0 (http://fontforge.sf.net)\nShapes for use with WatchMaker watch design program for Android.\nThis font may be distributed freely, with or without modifications, so long as this message remains with it.
UComments: "2015-8-26: Created."
Version: 001.000
ItalicAngle: 0
UnderlinePosition: -100
UnderlineWidth: 50
Ascent: 1000
Descent: 0
InvalidEm: 0
LayerCount: 2
Layer: 0 0 "Back" 1
Layer: 1 0 "Fore" 0
XUID: [1021 343 1475981339 8206076]
OS2Version: 0
OS2_WeightWidthSlopeOnly: 0
OS2_UseTypoMetrics: 1
CreationTime: 1440593367
ModificationTime: 1445566492
OS2TypoAscent: 0
OS2TypoAOffset: 1
OS2TypoDescent: 0
OS2TypoDOffset: 1
OS2TypoLinegap: 0
OS2WinAscent: 0
OS2WinAOffset: 1
OS2WinDescent: 0
OS2WinDOffset: 1
HheadAscent: 0
HheadAOffset: 1
HheadDescent: 0
HheadDOffset: 1
OS2CapHeight: 0
OS2XHeight: 0
OS2Vendor: 'PfEd'
MarkAttachClasses: 1
DEI: 91125
Encoding: UnicodeBmp
UnicodeInterp: none
NameList: Adobe Glyph List
DisplaySize: -48
AntiAlias: 1
FitToEm: 1
WinInfo: 10 10 11
BeginPrivate: 0
EndPrivate
Grid
275 500 m 25
 740 500 l 1053
500 773 m 25
 500 269 l 1049
EndSplineSet
BeginChars: 65536 262

StartChar: A
Encoding: 65 65 0
Width: 1000
VWidth: 0
Flags: H
LayerCount: 2
Back
Fore
SplineSet
100 900 m 1
 100 100 l 1
 900 100 l 1
 900 900 l 1
 100 900 l 1
0 1000 m 1
 1000 1000 l 1
 1000 0 l 1
 0 0 l 1
 0 1000 l 1
EndSplineSet
EndChar

StartChar: B
Encoding: 66 66 1
Width: 1000
VWidth: 0
Flags: HW
LayerCount: 2
Back
Fore
SplineSet
180 820 m 1
 180 180 l 1
 820 180 l 1
 820 820 l 1
 180 820 l 1
0 1000 m 1
 1000 1000 l 1
 1000 0 l 1
 0 0 l 1
 0 1000 l 1
EndSplineSet
EndChar

StartChar: C
Encoding: 67 67 2
Width: 1000
VWidth: 0
Flags: HW
LayerCount: 2
Back
Fore
SplineSet
244 756 m 1
 244 244 l 1
 756 244 l 1
 756 756 l 1
 244 756 l 1
0 1000 m 1
 1000 1000 l 1
 1000 0 l 1
 0 0 l 1
 0 1000 l 1
EndSplineSet
EndChar

StartChar: D
Encoding: 68 68 3
Width: 1000
VWidth: 0
Flags: HW
LayerCount: 2
Back
Fore
SplineSet
295.2 704.8 m 1
 295.2 295.2 l 1
 704.8 295.2 l 1
 704.8 704.8 l 1
 295.2 704.8 l 1
0 1000 m 1
 1000 1000 l 1
 1000 0 l 5
 0 0 l 5
 0 1000 l 1
EndSplineSet
EndChar

StartChar: E
Encoding: 69 69 4
Width: 1000
VWidth: 0
Flags: HW
LayerCount: 2
Back
Fore
SplineSet
336.16 663.84 m 5
 336.16 336.16 l 5
 663.84 336.16 l 5
 663.84 663.84 l 5
 336.16 663.84 l 5
0 1000 m 1
 1000 1000 l 1
 1000 0 l 1
 0 0 l 1
 0 1000 l 1
EndSplineSet
EndChar

StartChar: F
Encoding: 70 70 5
Width: 1000
VWidth: 0
Flags: HW
LayerCount: 2
Back
Fore
SplineSet
368.928 631.072 m 5
 368.928 368.928 l 5
 631.072 368.928 l 5
 631.072 631.072 l 5
 368.928 631.072 l 5
0 1000 m 1
 1000 1000 l 1
 1000 0 l 1
 0 0 l 1
 0 1000 l 1
EndSplineSet
EndChar

StartChar: G
Encoding: 71 71 6
Width: 1000
VWidth: 0
Flags: HW
LayerCount: 2
Back
Fore
SplineSet
395.143 604.857 m 5
 395.143 395.143 l 5
 604.857 395.143 l 5
 604.857 604.857 l 5
 395.143 604.857 l 5
0 1000 m 1
 1000 1000 l 1
 1000 0 l 1
 0 0 l 1
 0 1000 l 1
EndSplineSet
EndChar

StartChar: H
Encoding: 72 72 7
Width: 1000
VWidth: 0
Flags: HW
LayerCount: 2
Back
Fore
SplineSet
416.114 583.886 m 5
 416.114 416.114 l 5
 583.886 416.114 l 5
 583.886 583.886 l 5
 416.114 583.886 l 5
0 1000 m 1
 1000 1000 l 1
 1000 0 l 1
 0 0 l 1
 0 1000 l 1
EndSplineSet
EndChar

StartChar: I
Encoding: 73 73 8
Width: 1000
VWidth: 0
Flags: H
LayerCount: 2
Back
Fore
SplineSet
100 500 m 0
 100 279.2 279.2 100 500 100 c 0
 720.8 100 900 279.2 900 500 c 0
 900 720.8 720.8 900 500 900 c 0
 279.2 900 100 720.8 100 500 c 0
0 500 m 0
 0 776 224 1000 500 1000 c 0
 776 1000 1000 776 1000 500 c 0
 1000 224 776 0 500 0 c 0
 224 0 0 224 0 500 c 0
EndSplineSet
EndChar

StartChar: J
Encoding: 74 74 9
Width: 1000
VWidth: 0
Flags: HW
LayerCount: 2
Back
Fore
SplineSet
180 500 m 4
 180 323.36 323.36 180 500 180 c 4
 676.64 180 820 323.36 820 500 c 4
 820 676.64 676.64 820 500 820 c 4
 323.36 820 180 676.64 180 500 c 4
0 500 m 0
 0 776 224 1000 500 1000 c 0
 776 1000 1000 776 1000 500 c 0
 1000 224 776 0 500 0 c 0
 224 0 0 224 0 500 c 0
EndSplineSet
EndChar

StartChar: K
Encoding: 75 75 10
Width: 1000
VWidth: 0
Flags: HW
LayerCount: 2
Back
Fore
SplineSet
295.2 500 m 0
 295.2 386.951 386.951 295.2 500 295.2 c 0
 613.049 295.2 704.8 386.951 704.8 500 c 0
 704.8 613.049 613.049 704.8 500 704.8 c 0
 386.951 704.8 295.2 613.049 295.2 500 c 0
0 500 m 0
 0 776 224 1000 500 1000 c 0
 776 1000 1000 776 1000 500 c 0
 1000 224 776 0 500 0 c 0
 224 0 0 224 0 500 c 0
EndSplineSet
EndChar

StartChar: L
Encoding: 76 76 11
Width: 1000
VWidth: 0
Flags: HW
LayerCount: 2
Back
Fore
SplineSet
336.16 500 m 4
 336.16 409.561 409.561 336.16 500 336.16 c 4
 590.439 336.16 663.84 409.561 663.84 500 c 4
 663.84 590.439 590.439 663.84 500 663.84 c 4
 409.561 663.84 336.16 590.439 336.16 500 c 4
0 500 m 0
 0 776 224 1000 500 1000 c 0
 776 1000 1000 776 1000 500 c 0
 1000 224 776 0 500 0 c 0
 224 0 0 224 0 500 c 0
EndSplineSet
EndChar

StartChar: M
Encoding: 77 77 12
Width: 1000
VWidth: 0
Flags: HW
LayerCount: 2
Back
Fore
SplineSet
368.928 500 m 4
 368.928 427.648 427.648 368.928 500 368.928 c 4
 572.352 368.928 631.072 427.648 631.072 500 c 4
 631.072 572.352 572.352 631.072 500 631.072 c 4
 427.648 631.072 368.928 572.352 368.928 500 c 4
0 500 m 0
 0 776 224 1000 500 1000 c 0
 776 1000 1000 776 1000 500 c 0
 1000 224 776 0 500 0 c 0
 224 0 0 224 0 500 c 0
EndSplineSet
EndChar

StartChar: N
Encoding: 78 78 13
Width: 1000
VWidth: 0
Flags: HW
LayerCount: 2
Back
Fore
SplineSet
395.143 500 m 4
 395.143 442.119 442.119 395.143 500 395.143 c 4
 557.881 395.143 604.857 442.119 604.857 500 c 4
 604.857 557.881 557.881 604.857 500 604.857 c 4
 442.119 604.857 395.143 557.881 395.143 500 c 4
0 500 m 0
 0 776 224 1000 500 1000 c 0
 776 1000 1000 776 1000 500 c 0
 1000 224 776 0 500 0 c 0
 224 0 0 224 0 500 c 0
EndSplineSet
EndChar

StartChar: O
Encoding: 79 79 14
Width: 1000
VWidth: 0
Flags: HW
LayerCount: 2
Back
Fore
SplineSet
416.114 500 m 4
 416.114 453.695 453.695 416.114 500 416.114 c 4
 546.305 416.114 583.886 453.695 583.886 500 c 4
 583.886 546.305 546.305 583.886 500 583.886 c 4
 453.695 583.886 416.114 546.305 416.114 500 c 4
0 500 m 0
 0 776 224 1000 500 1000 c 0
 776 1000 1000 776 1000 500 c 0
 1000 224 776 0 500 0 c 0
 224 0 0 224 0 500 c 0
EndSplineSet
EndChar

StartChar: P
Encoding: 80 80 15
Width: 1000
VWidth: 0
Flags: HW
LayerCount: 2
Back
Fore
SplineSet
432.892 500 m 4
 432.892 462.956 462.956 432.892 500 432.892 c 4
 537.044 432.892 567.108 462.956 567.108 500 c 4
 567.108 537.044 537.044 567.108 500 567.108 c 4
 462.956 567.108 432.892 537.044 432.892 500 c 4
0 500 m 0
 0 776 224 1000 500 1000 c 0
 776 1000 1000 776 1000 500 c 0
 1000 224 776 0 500 0 c 0
 224 0 0 224 0 500 c 0
EndSplineSet
EndChar

StartChar: Q
Encoding: 81 81 16
Width: 1000
VWidth: 0
Flags: H
LayerCount: 2
Back
Fore
SplineSet
100 1001 m 2
 900 1001 l 2
 955.2 1001 1000 956.2 1000 901 c 2
 1000 100 l 2
 1000 44.8 955.2 0 900 0 c 2
 100 0 l 6
 44.8 0 0 44.8 0 100 c 2
 0 901 l 2
 0 956.2 44.8 1001 100 1001 c 2
EndSplineSet
EndChar

StartChar: R
Encoding: 82 82 17
Width: 1000
VWidth: 0
Flags: HW
LayerCount: 2
Back
Fore
SplineSet
180 900.9 m 6
 135.84 900.9 100 865.06 100 820.9 c 6
 100 180.1 l 6
 100 135.94 135.84 100.1 180 100.1 c 6
 820 100.1 l 6
 864.16 100.1 900 135.94 900 180.1 c 6
 900 820.9 l 6
 900 865.06 864.16 900.9 820 900.9 c 6
 180 900.9 l 6
100 1001 m 2
 900 1001 l 2
 955.2 1001 1000 956.2 1000 901 c 2
 1000 100 l 2
 1000 44.8 955.2 0 900 0 c 2
 100 0 l 2
 44.8 0 0 44.8 0 100 c 2
 0 901 l 2
 0 956.2 44.8 1001 100 1001 c 2
EndSplineSet
EndChar

StartChar: S
Encoding: 83 83 18
Width: 1000
VWidth: 0
Flags: HW
LayerCount: 2
Back
Fore
SplineSet
244 820.82 m 6
 208.672 820.82 180 792.147 180 756.82 c 6
 180 244.18 l 6
 180 208.853 208.672 180.18 244 180.18 c 6
 756 180.18 l 6
 791.328 180.18 820 208.853 820 244.18 c 6
 820 756.82 l 6
 820 792.147 791.328 820.82 756 820.82 c 6
 244 820.82 l 6
100 1001 m 2
 900 1001 l 2
 955.2 1001 1000 956.2 1000 901 c 2
 1000 100 l 2
 1000 44.8 955.2 0 900 0 c 2
 100 0 l 2
 44.8 0 0 44.8 0 100 c 2
 0 901 l 2
 0 956.2 44.8 1001 100 1001 c 2
EndSplineSet
EndChar

StartChar: T
Encoding: 84 84 19
Width: 1000
VWidth: 0
Flags: HW
LayerCount: 2
Back
Fore
SplineSet
295.2 756.756 m 6
 266.938 756.756 244 733.818 244 705.557 c 6
 244 295.443 l 6
 244 267.182 266.938 244.244 295.2 244.244 c 6
 704.8 244.244 l 6
 733.062 244.244 756 267.182 756 295.443 c 6
 756 705.557 l 6
 756 733.818 733.062 756.756 704.8 756.756 c 6
 295.2 756.756 l 6
100 1001 m 2
 900 1001 l 2
 955.2 1001 1000 956.2 1000 901 c 2
 1000 100 l 2
 1000 44.8 955.2 0 900 0 c 2
 100 0 l 2
 44.8 0 0 44.8 0 100 c 2
 0 901 l 2
 0 956.2 44.8 1001 100 1001 c 2
EndSplineSet
EndChar

StartChar: U
Encoding: 85 85 20
Width: 1000
VWidth: 0
Flags: HW
LayerCount: 2
Back
Fore
SplineSet
336.16 705.505 m 6
 313.55 705.505 295.2 687.154 295.2 664.545 c 6
 295.2 336.455 l 6
 295.2 313.846 313.55 295.495 336.16 295.495 c 6
 663.84 295.495 l 6
 686.45 295.495 704.8 313.846 704.8 336.455 c 6
 704.8 664.545 l 6
 704.8 687.154 686.45 705.505 663.84 705.505 c 6
 336.16 705.505 l 6
100 1001 m 2
 900 1001 l 2
 955.2 1001 1000 956.2 1000 901 c 2
 1000 100 l 2
 1000 44.8 955.2 0 900 0 c 2
 100 0 l 2
 44.8 0 0 44.8 0 100 c 2
 0 901 l 2
 0 956.2 44.8 1001 100 1001 c 2
EndSplineSet
EndChar

StartChar: V
Encoding: 86 86 21
Width: 1000
VWidth: 0
Flags: HW
LayerCount: 2
Back
Fore
SplineSet
368.928 664.504 m 6
 350.84 664.504 336.16 649.823 336.16 631.736 c 6
 336.16 369.264 l 6
 336.16 351.177 350.84 336.496 368.928 336.496 c 6
 631.072 336.496 l 6
 649.16 336.496 663.84 351.177 663.84 369.264 c 6
 663.84 631.736 l 6
 663.84 649.823 649.16 664.504 631.072 664.504 c 6
 368.928 664.504 l 6
100 1001 m 2
 900 1001 l 2
 955.2 1001 1000 956.2 1000 901 c 2
 1000 100 l 2
 1000 44.8 955.2 0 900 0 c 2
 100 0 l 2
 44.8 0 0 44.8 0 100 c 2
 0 901 l 2
 0 956.2 44.8 1001 100 1001 c 2
EndSplineSet
EndChar

StartChar: W
Encoding: 87 87 22
Width: 1000
VWidth: 0
Flags: HW
LayerCount: 2
Back
Fore
SplineSet
395.143 631.703 m 6
 380.672 631.703 368.928 619.959 368.928 605.489 c 6
 368.928 395.511 l 6
 368.928 381.041 380.672 369.297 395.143 369.297 c 6
 604.857 369.297 l 6
 619.328 369.297 631.072 381.041 631.072 395.511 c 6
 631.072 605.489 l 6
 631.072 619.959 619.328 631.703 604.857 631.703 c 6
 395.143 631.703 l 6
100 1001 m 2
 900 1001 l 2
 955.2 1001 1000 956.2 1000 901 c 2
 1000 100 l 2
 1000 44.8 955.2 0 900 0 c 2
 100 0 l 2
 44.8 0 0 44.8 0 100 c 2
 0 901 l 2
 0 956.2 44.8 1001 100 1001 c 2
EndSplineSet
EndChar

StartChar: X
Encoding: 88 88 23
Width: 1000
VWidth: 0
Flags: HW
LayerCount: 2
Back
Fore
SplineSet
416.114 605.463 m 6
 404.537 605.463 395.143 596.067 395.143 584.491 c 6
 395.143 416.509 l 6
 395.143 404.933 404.537 395.537 416.114 395.537 c 6
 583.886 395.537 l 6
 595.463 395.537 604.857 404.933 604.857 416.509 c 6
 604.857 584.491 l 6
 604.857 596.067 595.463 605.463 583.886 605.463 c 6
 416.114 605.463 l 6
100 1001 m 2
 900 1001 l 2
 955.2 1001 1000 956.2 1000 901 c 2
 1000 100 l 2
 1000 44.8 955.2 0 900 0 c 2
 100 0 l 2
 44.8 0 0 44.8 0 100 c 2
 0 901 l 2
 0 956.2 44.8 1001 100 1001 c 2
EndSplineSet
EndChar

StartChar: Y
Encoding: 89 89 24
Width: 1000
VWidth: 0
Flags: HW
LayerCount: 2
Back
Fore
SplineSet
432.892 584.471 m 6
 423.63 584.471 416.114 576.954 416.114 567.693 c 6
 416.114 433.307 l 6
 416.114 424.046 423.63 416.529 432.892 416.529 c 6
 567.108 416.529 l 6
 576.37 416.529 583.886 424.046 583.886 433.307 c 6
 583.886 567.693 l 6
 583.886 576.954 576.37 584.471 567.108 584.471 c 6
 432.892 584.471 l 6
100 1001 m 2
 900 1001 l 2
 955.2 1001 1000 956.2 1000 901 c 2
 1000 100 l 2
 1000 44.8 955.2 0 900 0 c 2
 100 0 l 2
 44.8 0 0 44.8 0 100 c 2
 0 901 l 2
 0 956.2 44.8 1001 100 1001 c 2
EndSplineSet
EndChar

StartChar: Z
Encoding: 90 90 25
Width: 1000
VWidth: 0
Flags: HW
LayerCount: 2
Back
Fore
SplineSet
446.313 567.677 m 6
 438.904 567.677 432.892 561.663 432.892 554.255 c 6
 432.892 446.745 l 6
 432.892 439.337 438.904 433.323 446.313 433.323 c 6
 553.687 433.323 l 6
 561.096 433.323 567.108 439.337 567.108 446.745 c 6
 567.108 554.255 l 6
 567.108 561.663 561.096 567.677 553.687 567.677 c 6
 446.313 567.677 l 6
100 1001 m 2
 900 1001 l 2
 955.2 1001 1000 956.2 1000 901 c 2
 1000 100 l 2
 1000 44.8 955.2 0 900 0 c 2
 100 0 l 2
 44.8 0 0 44.8 0 100 c 2
 0 901 l 2
 0 956.2 44.8 1001 100 1001 c 2
EndSplineSet
EndChar

StartChar: a
Encoding: 97 97 26
Width: 1000
VWidth: 0
Flags: HW
LayerCount: 2
Back
Fore
SplineSet
200 1001 m 2
 800 1001 l 2
 910.4 1001 1000 911.4 1000 801 c 2
 1000 200 l 2
 1000 89.6 910.4 0 800 0 c 2
 200 0 l 2
 89.6 0 0 89.6 0 200 c 2
 0 801 l 2
 0 911.4 89.6 1001 200 1001 c 2
EndSplineSet
EndChar

StartChar: b
Encoding: 98 98 27
Width: 1000
VWidth: 0
Flags: HW
LayerCount: 2
Back
Fore
SplineSet
260 900.9 m 6
 171.68 900.9 100 829.22 100 740.9 c 6
 100 260.1 l 6
 100 171.78 171.68 100.1 260 100.1 c 6
 740 100.1 l 6
 828.32 100.1 900 171.78 900 260.1 c 6
 900 740.9 l 6
 900 829.22 828.32 900.9 740 900.9 c 6
 260 900.9 l 6
200 1001 m 2
 800 1001 l 2
 910.4 1001 1000 911.4 1000 801 c 2
 1000 200 l 2
 1000 89.6 910.4 0 800 0 c 2
 200 0 l 2
 89.6 0 0 89.6 0 200 c 2
 0 801 l 2
 0 911.4 89.6 1001 200 1001 c 2
EndSplineSet
EndChar

StartChar: c
Encoding: 99 99 28
Width: 1000
VWidth: 0
Flags: HW
LayerCount: 2
Back
Fore
SplineSet
308 820.82 m 6
 237.344 820.82 180 763.476 180 692.82 c 6
 180 308.18 l 6
 180 237.524 237.344 180.18 308 180.18 c 6
 692 180.18 l 6
 762.656 180.18 820 237.524 820 308.18 c 6
 820 692.82 l 6
 820 763.476 762.656 820.82 692 820.82 c 6
 308 820.82 l 6
200 1001 m 2
 800 1001 l 2
 910.4 1001 1000 911.4 1000 801 c 2
 1000 200 l 2
 1000 89.6 910.4 0 800 0 c 2
 200 0 l 2
 89.6 0 0 89.6 0 200 c 2
 0 801 l 2
 0 911.4 89.6 1001 200 1001 c 2
EndSplineSet
EndChar

StartChar: d
Encoding: 100 100 29
Width: 1000
VWidth: 0
Flags: HW
LayerCount: 2
Back
Fore
SplineSet
346.4 756.756 m 6
 289.875 756.756 244 710.881 244 654.356 c 6
 244 346.644 l 6
 244 290.119 289.875 244.244 346.4 244.244 c 6
 653.6 244.244 l 6
 710.125 244.244 756 290.119 756 346.644 c 6
 756 654.356 l 6
 756 710.881 710.125 756.756 653.6 756.756 c 6
 346.4 756.756 l 6
200 1001 m 2
 800 1001 l 2
 910.4 1001 1000 911.4 1000 801 c 2
 1000 200 l 2
 1000 89.6 910.4 0 800 0 c 2
 200 0 l 2
 89.6 0 0 89.6 0 200 c 2
 0 801 l 2
 0 911.4 89.6 1001 200 1001 c 2
EndSplineSet
EndChar

StartChar: e
Encoding: 101 101 30
Width: 1000
VWidth: 0
Flags: HW
LayerCount: 2
Back
Fore
SplineSet
377.12 705.505 m 6
 331.9 705.505 295.2 668.805 295.2 623.585 c 6
 295.2 377.415 l 6
 295.2 332.195 331.9 295.495 377.12 295.495 c 6
 622.88 295.495 l 6
 668.1 295.495 704.8 332.195 704.8 377.415 c 6
 704.8 623.585 l 6
 704.8 668.805 668.1 705.505 622.88 705.505 c 6
 377.12 705.505 l 6
200 1001 m 2
 800 1001 l 2
 910.4 1001 1000 911.4 1000 801 c 2
 1000 200 l 2
 1000 89.6 910.4 0 800 0 c 2
 200 0 l 2
 89.6 0 0 89.6 0 200 c 2
 0 801 l 2
 0 911.4 89.6 1001 200 1001 c 2
EndSplineSet
EndChar

StartChar: f
Encoding: 102 102 31
Width: 1000
VWidth: 0
Flags: HW
LayerCount: 2
Back
Fore
SplineSet
401.696 664.504 m 6
 365.521 664.504 336.16 635.144 336.16 598.968 c 6
 336.16 402.032 l 6
 336.16 365.856 365.521 336.496 401.696 336.496 c 6
 598.304 336.496 l 6
 634.479 336.496 663.84 365.856 663.84 402.032 c 6
 663.84 598.968 l 6
 663.84 635.144 634.479 664.504 598.304 664.504 c 6
 401.696 664.504 l 6
200 1001 m 2
 800 1001 l 2
 910.4 1001 1000 911.4 1000 801 c 2
 1000 200 l 2
 1000 89.6 910.4 0 800 0 c 2
 200 0 l 2
 89.6 0 0 89.6 0 200 c 2
 0 801 l 2
 0 911.4 89.6 1001 200 1001 c 2
EndSplineSet
EndChar

StartChar: g
Encoding: 103 103 32
Width: 1000
VWidth: 0
Flags: HW
LayerCount: 2
Back
Fore
SplineSet
437.086 605.463 m 6
 413.933 605.463 395.143 586.672 395.143 563.52 c 6
 395.143 437.48 l 6
 395.143 414.328 413.933 395.537 437.086 395.537 c 6
 562.914 395.537 l 6
 586.067 395.537 604.857 414.328 604.857 437.48 c 6
 604.857 563.52 l 6
 604.857 586.672 586.067 605.463 562.914 605.463 c 6
 437.086 605.463 l 6
200 1001 m 2
 800 1001 l 2
 910.4 1001 1000 911.4 1000 801 c 2
 1000 200 l 2
 1000 89.6 910.4 0 800 0 c 2
 200 0 l 2
 89.6 0 0 89.6 0 200 c 2
 0 801 l 2
 0 911.4 89.6 1001 200 1001 c 2
EndSplineSet
EndChar

StartChar: h
Encoding: 104 104 33
Width: 1000
VWidth: 0
Flags: HW
LayerCount: 2
Back
Fore
SplineSet
449.669 584.471 m 6
 431.146 584.471 416.114 569.438 416.114 550.916 c 6
 416.114 450.084 l 6
 416.114 431.562 431.146 416.529 449.669 416.529 c 6
 550.331 416.529 l 6
 568.854 416.529 583.886 431.562 583.886 450.084 c 6
 583.886 550.916 l 6
 583.886 569.438 568.854 584.471 550.331 584.471 c 6
 449.669 584.471 l 6
200 1001 m 2
 800 1001 l 2
 910.4 1001 1000 911.4 1000 801 c 2
 1000 200 l 2
 1000 89.6 910.4 0 800 0 c 2
 200 0 l 2
 89.6 0 0 89.6 0 200 c 2
 0 801 l 2
 0 911.4 89.6 1001 200 1001 c 2
EndSplineSet
EndChar

StartChar: i
Encoding: 105 105 34
Width: 1000
VWidth: 0
Flags: HW
LayerCount: 2
Back
Fore
SplineSet
459.735 567.677 m 6
 444.917 567.677 432.892 555.65 432.892 540.833 c 6
 432.892 460.167 l 6
 432.892 445.35 444.917 433.323 459.735 433.323 c 6
 540.265 433.323 l 6
 555.083 433.323 567.108 445.35 567.108 460.167 c 6
 567.108 540.833 l 6
 567.108 555.65 555.083 567.677 540.265 567.677 c 6
 459.735 567.677 l 6
200 1001 m 2
 800 1001 l 2
 910.4 1001 1000 911.4 1000 801 c 2
 1000 200 l 2
 1000 89.6 910.4 0 800 0 c 2
 200 0 l 2
 89.6 0 0 89.6 0 200 c 2
 0 801 l 2
 0 911.4 89.6 1001 200 1001 c 2
EndSplineSet
EndChar

StartChar: j
Encoding: 106 106 35
Width: 1000
VWidth: 0
Flags: HW
LayerCount: 2
Back
Fore
SplineSet
467.788 554.241 m 6
 455.934 554.241 446.313 544.62 446.313 532.767 c 6
 446.313 468.233 l 6
 446.313 456.38 455.934 446.759 467.788 446.759 c 6
 532.212 446.759 l 6
 544.066 446.759 553.687 456.38 553.687 468.233 c 6
 553.687 532.767 l 6
 553.687 544.62 544.066 554.241 532.212 554.241 c 6
 467.788 554.241 l 6
200 1001 m 2
 800 1001 l 2
 910.4 1001 1000 911.4 1000 801 c 2
 1000 200 l 2
 1000 89.6 910.4 0 800 0 c 2
 200 0 l 2
 89.6 0 0 89.6 0 200 c 2
 0 801 l 2
 0 911.4 89.6 1001 200 1001 c 2
EndSplineSet
EndChar

StartChar: k
Encoding: 107 107 36
Width: 1000
VWidth: 0
Flags: H
LayerCount: 2
Back
Fore
SplineSet
500 975 m 1
 999.305 612.234 l 1
 808.587 25.2656 l 1
 191.413 25.2656 l 5
 0.695312 612.234 l 1
 500 975 l 1
EndSplineSet
EndChar

StartChar: l
Encoding: 108 108 37
Width: 1000
VWidth: 0
Flags: HW
LayerCount: 2
Back
Fore
SplineSet
500 864.940429688 m 1
 100.556640625 574.727539062 l 1
 253.130859375 105.15234375 l 1
 746.869140625 105.15234375 l 1
 899.444335938 574.727539062 l 1
 500 864.940429688 l 1
500 975 m 1
 999.305 612.234 l 1
 808.587 25.2656 l 1
 191.413 25.2656 l 1
 0.695312 612.234 l 1
 500 975 l 1
EndSplineSet
EndChar

StartChar: m
Encoding: 109 109 38
Width: 1000
VWidth: 0
Flags: HW
LayerCount: 2
Back
Fore
SplineSet
500 779.048 m 5
 180.445 546.878 l 5
 302.505 171.218 l 5
 697.495 171.218 l 5
 819.555 546.878 l 5
 500 779.048 l 5
500 975 m 1
 999.305 612.234 l 1
 808.587 25.2656 l 1
 191.413 25.2656 l 1
 0.695312 612.234 l 1
 500 975 l 1
EndSplineSet
EndChar

StartChar: n
Encoding: 110 110 39
Width: 1000
VWidth: 0
Flags: HW
LayerCount: 2
Back
Fore
SplineSet
500 718.265 m 5
 244.356 532.529 l 5
 342.004 232.001 l 5
 657.996 232.001 l 5
 755.644 532.529 l 5
 500 718.265 l 5
500 975 m 1
 999.305 612.234 l 1
 808.587 25.2656 l 1
 191.413 25.2656 l 1
 0.695312 612.234 l 1
 500 975 l 1
EndSplineSet
EndChar

StartChar: o
Encoding: 111 111 40
Width: 1000
VWidth: 0
Flags: HW
LayerCount: 2
Back
Fore
SplineSet
500 669.639 m 5
 295.485 521.05 l 5
 373.604 280.627 l 5
 626.396 280.627 l 5
 704.515 521.05 l 5
 500 669.639 l 5
500 975 m 1
 999.305 612.234 l 1
 808.587 25.2656 l 1
 191.413 25.2656 l 1
 0.695312 612.234 l 1
 500 975 l 1
EndSplineSet
EndChar

StartChar: p
Encoding: 112 112 41
Width: 1000
VWidth: 0
Flags: HW
LayerCount: 2
Back
Fore
SplineSet
500 630.737 m 5
 336.389 511.866 l 5
 398.883 319.528 l 5
 601.117 319.528 l 5
 663.611 511.866 l 5
 500 630.737 l 5
500 975 m 1
 999.305 612.234 l 1
 808.587 25.2656 l 1
 191.413 25.2656 l 1
 0.695312 612.234 l 1
 500 975 l 1
EndSplineSet
EndChar

StartChar: q
Encoding: 113 113 42
Width: 1000
VWidth: 0
Flags: HW
LayerCount: 2
Back
Fore
SplineSet
500 599.616 m 5
 369.111 504.52 l 5
 419.106 350.649 l 5
 580.894 350.649 l 5
 630.889 504.52 l 5
 500 599.616 l 5
500 975 m 1
 999.305 612.234 l 1
 808.587 25.2656 l 1
 191.413 25.2656 l 1
 0.695312 612.234 l 1
 500 975 l 1
EndSplineSet
EndChar

StartChar: r
Encoding: 114 114 43
Width: 1000
VWidth: 0
Flags: HW
LayerCount: 2
Back
Fore
SplineSet
500 574.72 m 5
 395.289 498.643 l 5
 435.285 375.546 l 5
 564.715 375.546 l 5
 604.711 498.643 l 5
 500 574.72 l 5
500 975 m 1
 999.305 612.234 l 1
 808.587 25.2656 l 1
 191.413 25.2656 l 1
 0.695312 612.234 l 1
 500 975 l 1
EndSplineSet
EndChar

StartChar: s
Encoding: 115 115 44
Width: 1000
VWidth: 0
Flags: HW
LayerCount: 2
Back
Fore
SplineSet
500 554.803 m 5
 416.231 493.94 l 5
 448.229 395.463 l 5
 551.771 395.463 l 5
 583.769 493.94 l 5
 500 554.803 l 5
500 975 m 1
 999.305 612.234 l 1
 808.587 25.2656 l 1
 191.413 25.2656 l 1
 0.695312 612.234 l 1
 500 975 l 1
EndSplineSet
EndChar

StartChar: t
Encoding: 116 116 45
Width: 1000
VWidth: 0
Flags: HW
LayerCount: 2
Back
Fore
SplineSet
500 538.869 m 5
 432.985 490.179 l 5
 458.583 411.396 l 5
 541.417 411.396 l 5
 567.015 490.179 l 5
 500 538.869 l 5
500 975 m 1
 999.305 612.234 l 1
 808.587 25.2656 l 1
 191.413 25.2656 l 1
 0.695312 612.234 l 1
 500 975 l 1
EndSplineSet
EndChar

StartChar: u
Encoding: 117 117 46
Width: 1000
VWidth: 0
Flags: H
LayerCount: 2
Back
Fore
SplineSet
500 934.1 m 5
 1000.65 66.9502 l 5
 -0.649414 66.9502 l 5
 500 934.1 l 5
EndSplineSet
EndChar

StartChar: v
Encoding: 118 118 47
Width: 1000
VWidth: 0
Flags: HW
LayerCount: 2
Back
Fore
SplineSet
500 822.385 m 5
 99.4805 128.665 l 5
 900.52 128.665 l 5
 500 822.385 l 5
500 934.1 m 1
 1000.65 66.9502 l 1
 -0.649414 66.9502 l 1
 500 934.1 l 1
EndSplineSet
EndChar

StartChar: w
Encoding: 119 119 48
Width: 1000
VWidth: 0
Flags: HW
LayerCount: 2
Back
Fore
SplineSet
500 729.013 m 5
 179.584 174.037 l 5
 820.416 174.037 l 5
 500 729.013 l 5
500 934.1 m 1
 1000.65 66.9502 l 1
 -0.649414 66.9502 l 1
 500 934.1 l 1
EndSplineSet
EndChar

StartChar: x
Encoding: 120 120 49
Width: 1000
VWidth: 0
Flags: HW
LayerCount: 2
Back
Fore
SplineSet
500 650.016 m 5
 243.667 206.035 l 5
 756.333 206.035 l 5
 500 650.016 l 5
500 934.1 m 1
 1000.65 66.9502 l 1
 -0.649414 66.9502 l 1
 500 934.1 l 1
EndSplineSet
EndChar

StartChar: y
Encoding: 121 121 50
Width: 1000
VWidth: 0
Flags: HW
LayerCount: 2
Back
Fore
SplineSet
500 605.617 m 5
 294.934 250.434 l 5
 705.066 250.434 l 5
 500 605.617 l 5
500 934.1 m 1
 1000.65 66.9502 l 1
 -0.649414 66.9502 l 1
 500 934.1 l 1
EndSplineSet
EndChar

StartChar: z
Encoding: 122 122 51
Width: 1000
VWidth: 0
Flags: HW
LayerCount: 2
Back
Fore
SplineSet
500 570.099 m 5
 335.947 285.952 l 5
 664.053 285.952 l 5
 500 570.099 l 5
500 934.1 m 1
 1000.65 66.9502 l 1
 -0.649414 66.9502 l 1
 500 934.1 l 1
EndSplineSet
EndChar

StartChar: braceleft
Encoding: 123 123 52
Width: 1000
VWidth: 0
Flags: HW
LayerCount: 2
Back
Fore
SplineSet
500 541.684 m 5
 368.758 314.367 l 5
 631.242 314.367 l 5
 500 541.684 l 5
500 934.1 m 1
 1000.65 66.9502 l 1
 -0.649414 66.9502 l 1
 500 934.1 l 1
EndSplineSet
EndChar

StartChar: bar
Encoding: 124 124 53
Width: 1000
VWidth: 0
Flags: HW
LayerCount: 2
Back
Fore
SplineSet
500 518.952 m 5
 395.006 337.099 l 5
 604.994 337.099 l 5
 500 518.952 l 5
500 934.1 m 1
 1000.65 66.9502 l 1
 -0.649414 66.9502 l 1
 500 934.1 l 1
EndSplineSet
EndChar

StartChar: braceright
Encoding: 125 125 54
Width: 1000
VWidth: 0
Flags: HW
LayerCount: 2
Back
Fore
SplineSet
500 500.767 m 5
 416.005 355.284 l 5
 583.995 355.284 l 5
 500 500.767 l 5
500 934.1 m 1
 1000.65 66.9502 l 1
 -0.649414 66.9502 l 1
 500 934.1 l 1
EndSplineSet
EndChar

StartChar: asciitilde
Encoding: 126 126 55
Width: 1000
VWidth: 0
Flags: HW
LayerCount: 2
Back
Fore
SplineSet
500 486.219 m 5
 432.804 369.832 l 5
 567.196 369.832 l 5
 500 486.219 l 5
500 934.1 m 1
 1000.65 66.9502 l 1
 -0.649414 66.9502 l 1
 500 934.1 l 1
EndSplineSet
EndChar

StartChar: exclam
Encoding: 33 33 56
Width: 1000
VWidth: 0
Flags: H
LayerCount: 2
Back
Fore
SplineSet
1000 500 m 5
 750 66.9873 l 5
 250 66.9873 l 5
 0 500 l 5
 250 933.013 l 5
 750 933.013 l 5
 1000 500 l 5
EndSplineSet
EndChar

StartChar: quotedbl
Encoding: 34 34 57
Width: 1000
VWidth: 0
Flags: HW
LayerCount: 2
Back
Fore
SplineSet
900 500 m 5
 700 846.41 l 5
 300 846.41 l 5
 100 500 l 5
 300 153.59 l 5
 700 153.59 l 5
 900 500 l 5
1000 500 m 1
 750 66.9873 l 1
 250 66.9873 l 1
 0 500 l 1
 250 933.013 l 1
 750 933.013 l 1
 1000 500 l 1
EndSplineSet
EndChar

StartChar: numbersign
Encoding: 35 35 58
Width: 1000
VWidth: 0
Flags: HW
LayerCount: 2
Back
Fore
SplineSet
820 500 m 5
 660 777.128 l 5
 340 777.128 l 5
 180 500 l 5
 340 222.872 l 5
 660 222.872 l 5
 820 500 l 5
1000 500 m 1
 750 66.9873 l 1
 250 66.9873 l 1
 0 500 l 1
 250 933.013 l 1
 750 933.013 l 1
 1000 500 l 1
EndSplineSet
EndChar

StartChar: dollar
Encoding: 36 36 59
Width: 1000
VWidth: 0
Flags: HW
LayerCount: 2
Back
Fore
SplineSet
756 500 m 5
 628 721.702 l 5
 372 721.702 l 5
 244 500 l 5
 372 278.298 l 5
 628 278.298 l 5
 756 500 l 5
1000 500 m 1
 750 66.9873 l 1
 250 66.9873 l 1
 0 500 l 1
 250 933.013 l 1
 750 933.013 l 1
 1000 500 l 1
EndSplineSet
EndChar

StartChar: percent
Encoding: 37 37 60
Width: 1000
VWidth: 0
Flags: HW
LayerCount: 2
Back
Fore
SplineSet
704.8 500 m 5
 602.4 677.361 l 5
 397.6 677.361 l 5
 295.2 500 l 5
 397.6 322.639 l 5
 602.4 322.639 l 5
 704.8 500 l 5
1000 500 m 1
 750 66.9873 l 1
 250 66.9873 l 1
 0 500 l 1
 250 933.013 l 1
 750 933.013 l 1
 1000 500 l 1
EndSplineSet
EndChar

StartChar: ampersand
Encoding: 38 38 61
Width: 1000
VWidth: 0
Flags: HW
LayerCount: 2
Back
Fore
SplineSet
663.84 500 m 5
 581.92 641.889 l 5
 418.08 641.889 l 5
 336.16 500 l 5
 418.08 358.111 l 5
 581.92 358.111 l 5
 663.84 500 l 5
1000 500 m 1
 750 66.9873 l 1
 250 66.9873 l 1
 0 500 l 1
 250 933.013 l 1
 750 933.013 l 1
 1000 500 l 1
EndSplineSet
EndChar

StartChar: quotesingle
Encoding: 39 39 62
Width: 1000
VWidth: 0
Flags: HW
LayerCount: 2
Back
Fore
SplineSet
631.072 500 m 5
 565.536 613.511 l 5
 434.464 613.511 l 5
 368.928 500 l 5
 434.464 386.489 l 5
 565.536 386.489 l 5
 631.072 500 l 5
1000 500 m 1
 750 66.9873 l 1
 250 66.9873 l 1
 0 500 l 1
 250 933.013 l 1
 750 933.013 l 1
 1000 500 l 1
EndSplineSet
EndChar

StartChar: parenleft
Encoding: 40 40 63
Width: 1000
VWidth: 0
Flags: HW
LayerCount: 2
Back
Fore
SplineSet
604.857 500 m 5
 552.429 590.809 l 5
 447.571 590.809 l 5
 395.143 500 l 5
 447.571 409.191 l 5
 552.429 409.191 l 5
 604.857 500 l 5
1000 500 m 1
 750 66.9873 l 1
 250 66.9873 l 1
 0 500 l 1
 250 933.013 l 1
 750 933.013 l 1
 1000 500 l 1
EndSplineSet
EndChar

StartChar: parenright
Encoding: 41 41 64
Width: 1000
VWidth: 0
Flags: HW
LayerCount: 2
Back
Fore
SplineSet
583.886 500 m 5
 541.943 572.646 l 5
 458.057 572.646 l 5
 416.114 500 l 5
 458.057 427.354 l 5
 541.943 427.354 l 5
 583.886 500 l 5
1000 500 m 1
 750 66.9873 l 1
 250 66.9873 l 1
 0 500 l 1
 250 933.013 l 1
 750 933.013 l 1
 1000 500 l 1
EndSplineSet
EndChar

StartChar: asterisk
Encoding: 42 42 65
Width: 1000
VWidth: 0
Flags: HW
LayerCount: 2
Back
Fore
SplineSet
567.108 500 m 5
 533.555 558.117 l 5
 466.445 558.117 l 5
 432.892 500 l 5
 466.445 441.883 l 5
 533.555 441.883 l 5
 567.108 500 l 5
1000 500 m 1
 750 66.9873 l 1
 250 66.9873 l 1
 0 500 l 1
 250 933.013 l 1
 750 933.013 l 1
 1000 500 l 1
EndSplineSet
EndChar

StartChar: zero
Encoding: 48 48 66
Width: 1000
VWidth: 0
Flags: H
LayerCount: 2
Back
Fore
SplineSet
500 975 m 5
 617.87 612.234 l 5
 999.305 612.234 l 5
 690.718 388.032 l 5
 808.587 25.2656 l 5
 500 249.468 l 5
 191.413 25.2656 l 5
 309.282 388.032 l 5
 0.695312 612.234 l 5
 382.13 612.234 l 5
 500 975 l 5
EndSplineSet
EndChar

StartChar: one
Encoding: 49 49 67
Width: 1000
VWidth: 0
Flags: HW
LayerCount: 2
Back
Fore
SplineSet
500 864.93359375 m 1
 405.704101562 574.721679688 l 1
 100.556640625 574.721679688 l 1
 347.42578125 395.359375 l 1
 253.130859375 105.146484375 l 1
 500 284.508789062 l 1
 746.869140625 105.146484375 l 1
 652.57421875 395.359375 l 1
 899.444335938 574.721679688 l 1
 594.295898438 574.721679688 l 1
 500 864.93359375 l 1
500 975 m 1
 617.87 612.234 l 1
 999.305 612.234 l 1
 690.718 388.032 l 1
 808.587 25.2656 l 1
 500 249.468 l 1
 191.413 25.2656 l 1
 309.282 388.032 l 1
 0.695312 612.234 l 1
 382.13 612.234 l 1
 500 975 l 1
EndSplineSet
EndChar

StartChar: two
Encoding: 50 50 68
Width: 1000
VWidth: 0
Flags: HW
LayerCount: 2
Back
Fore
SplineSet
500 784.880859375 m 5
 424.563476562 552.7109375 l 5
 180.4453125 552.7109375 l 5
 377.940429688 409.221679688 l 5
 302.504882812 177.05078125 l 5
 500 320.541015625 l 5
 697.495117188 177.05078125 l 5
 622.059570312 409.221679688 l 5
 819.555664062 552.7109375 l 5
 575.436523438 552.7109375 l 5
 500 784.880859375 l 5
500 975 m 1
 617.87 612.234 l 1
 999.305 612.234 l 1
 690.718 388.032 l 1
 808.587 25.2656 l 1
 500 249.468 l 1
 191.413 25.2656 l 1
 309.282 388.032 l 1
 0.695312 612.234 l 1
 382.13 612.234 l 1
 500 975 l 1
EndSplineSet
EndChar

StartChar: three
Encoding: 51 51 69
Width: 1000
VWidth: 0
Flags: HW
LayerCount: 2
Back
Fore
SplineSet
500 714.438476562 m 5
 439.650390625 528.703125 l 5
 244.356445312 528.703125 l 5
 402.352539062 413.911132812 l 5
 342.00390625 228.174804688 l 5
 500 342.966796875 l 5
 657.99609375 228.174804688 l 5
 597.647460938 413.911132812 l 5
 755.64453125 528.703125 l 5
 560.349609375 528.703125 l 5
 500 714.438476562 l 5
500 975 m 1
 617.87 612.234 l 1
 999.305 612.234 l 1
 690.718 388.032 l 1
 808.587 25.2656 l 1
 500 249.468 l 1
 191.413 25.2656 l 1
 309.282 388.032 l 1
 0.695312 612.234 l 1
 382.13 612.234 l 1
 500 975 l 1
EndSplineSet
EndChar

StartChar: four
Encoding: 52 52 70
Width: 1000
VWidth: 0
Flags: HW
LayerCount: 2
Back
Fore
SplineSet
500 424.67 m 1049
500 669.639 m 1,0,-1
 451.721 521.05 l 1,1,-1
 295.485 521.05 l 1,2,-1
 421.882 429.217 l 1,3,-1
 373.604 280.627 l 1,4,-1
 500 372.46 l 1,5,-1
 626.396 280.627 l 1,6,-1
 578.118 429.217 l 1,7,-1
 704.515 521.05 l 1,8,-1
 548.279 521.05 l 1,9,-1
 500 669.639 l 1,0,-1
500 975 m 1,10,-1
 617.87 612.234 l 1,11,-1
 999.305 612.234 l 1,12,-1
 690.718 388.032 l 1,13,-1
 808.587 25.2656 l 1,14,-1
 500 249.468 l 1,15,-1
 191.413 25.2656 l 1,16,-1
 309.282 388.032 l 1,17,-1
 0.695312 612.234 l 1,18,-1
 382.13 612.234 l 1,19,-1
 500 975 l 1,10,-1
EndSplineSet
EndChar

StartChar: five
Encoding: 53 53 71
Width: 1000
VWidth: 0
Flags: HW
LayerCount: 2
Back
Fore
SplineSet
500 630.737 m 5
 461.377 511.866 l 5
 336.389 511.866 l 5
 437.506 438.4 l 5
 398.883 319.528 l 5
 500 392.994 l 5
 601.117 319.528 l 5
 562.494 438.4 l 5
 663.611 511.866 l 5
 538.623 511.866 l 5
 500 630.737 l 5
500 975 m 1
 617.87 612.234 l 1
 999.305 612.234 l 1
 690.718 388.032 l 1
 808.587 25.2656 l 1
 500 249.468 l 1
 191.413 25.2656 l 1
 309.282 388.032 l 1
 0.695312 612.234 l 1
 382.13 612.234 l 1
 500 975 l 1
EndSplineSet
EndChar

StartChar: six
Encoding: 54 54 72
Width: 1000
VWidth: 0
Flags: HW
LayerCount: 2
Back
Fore
SplineSet
500 599.616 m 5
 469.102 504.52 l 5
 369.111 504.52 l 5
 450.005 445.747 l 5
 419.106 350.649 l 5
 500 409.422 l 5
 580.894 350.649 l 5
 549.995 445.747 l 5
 630.889 504.52 l 5
 530.898 504.52 l 5
 500 599.616 l 5
500 975 m 1
 617.87 612.234 l 1
 999.305 612.234 l 1
 690.718 388.032 l 1
 808.587 25.2656 l 1
 500 249.468 l 1
 191.413 25.2656 l 1
 309.282 388.032 l 1
 0.695312 612.234 l 1
 382.13 612.234 l 1
 500 975 l 1
EndSplineSet
EndChar

StartChar: seven
Encoding: 55 55 73
Width: 1000
VWidth: 0
Flags: HW
LayerCount: 2
Back
Fore
SplineSet
500 574.72 m 5
 475.281 498.643 l 5
 395.289 498.643 l 5
 460.004 451.624 l 5
 435.285 375.546 l 5
 500 422.564 l 5
 564.715 375.546 l 5
 539.996 451.624 l 5
 604.711 498.643 l 5
 524.719 498.643 l 5
 500 574.72 l 5
500 975 m 1
 617.87 612.234 l 1
 999.305 612.234 l 1
 690.718 388.032 l 1
 808.587 25.2656 l 1
 500 249.468 l 1
 191.413 25.2656 l 1
 309.282 388.032 l 1
 0.695312 612.234 l 1
 382.13 612.234 l 1
 500 975 l 1
EndSplineSet
EndChar

StartChar: eight
Encoding: 56 56 74
Width: 1000
VWidth: 0
Flags: HW
LayerCount: 2
Back
Fore
SplineSet
500 554.803 m 5
 480.225 493.94 l 5
 416.231 493.94 l 5
 468.003 456.326 l 5
 448.229 395.463 l 5
 500 433.078 l 5
 551.771 395.463 l 5
 531.997 456.326 l 5
 583.769 493.94 l 5
 519.775 493.94 l 5
 500 554.803 l 5
500 975 m 1
 617.87 612.234 l 1
 999.305 612.234 l 1
 690.718 388.032 l 1
 808.587 25.2656 l 1
 500 249.468 l 1
 191.413 25.2656 l 1
 309.282 388.032 l 1
 0.695312 612.234 l 1
 382.13 612.234 l 1
 500 975 l 1
EndSplineSet
EndChar

StartChar: nine
Encoding: 57 57 75
Width: 1000
VWidth: 0
Flags: HW
LayerCount: 2
Back
Fore
SplineSet
500 538.869 m 5
 484.18 490.179 l 5
 432.985 490.179 l 5
 474.402 460.088 l 5
 458.583 411.396 l 5
 500 441.489 l 5
 541.417 411.396 l 5
 525.598 460.088 l 5
 567.015 490.179 l 5
 515.82 490.179 l 5
 500 538.869 l 5
500 975 m 1
 617.87 612.234 l 1
 999.305 612.234 l 1
 690.718 388.032 l 1
 808.587 25.2656 l 1
 500 249.468 l 1
 191.413 25.2656 l 1
 309.282 388.032 l 1
 0.695312 612.234 l 1
 382.13 612.234 l 1
 500 975 l 1
EndSplineSet
EndChar

StartChar: plus
Encoding: 43 43 76
Width: 1000
VWidth: 0
Flags: H
LayerCount: 2
Back
Fore
SplineSet
1000 500 m 5
 750 355.662 l 5
 750 66.9873 l 5
 500 211.324 l 5
 250 66.9873 l 5
 250 355.662 l 5
 0 500 l 5
 250 644.338 l 5
 250 933.013 l 5
 500 788.675 l 5
 750 933.013 l 5
 750 644.338 l 5
 1000 500 l 5
EndSplineSet
EndChar

StartChar: comma
Encoding: 44 44 77
Width: 1000
VWidth: 0
Flags: HW
LayerCount: 2
Back
Fore
SplineSet
900 500 m 5
 700 615.471 l 5
 700 846.41 l 5
 500 730.939 l 5
 300 846.41 l 5
 300 615.471 l 5
 100 500 l 5
 300 384.529 l 5
 300 153.59 l 5
 500 269.06 l 5
 700 153.59 l 5
 700 384.529 l 5
 900 500 l 5
1000 500 m 1
 750 355.662 l 1
 750 66.9873 l 1
 500 211.324 l 1
 250 66.9873 l 1
 250 355.662 l 1
 0 500 l 1
 250 644.338 l 1
 250 933.013 l 1
 500 788.675 l 1
 750 933.013 l 1
 750 644.338 l 1
 1000 500 l 1
EndSplineSet
EndChar

StartChar: hyphen
Encoding: 45 45 78
Width: 1000
VWidth: 0
Flags: HW
LayerCount: 2
Back
Fore
SplineSet
820 500 m 5
 660 592.377 l 5
 660 777.128 l 5
 500 684.752 l 5
 340 777.128 l 5
 340 592.377 l 5
 180 500 l 5
 340 407.623 l 5
 340 222.872 l 5
 500 315.248 l 5
 660 222.872 l 5
 660 407.623 l 5
 820 500 l 5
1000 500 m 1
 750 355.662 l 1
 750 66.9873 l 1
 500 211.324 l 1
 250 66.9873 l 1
 250 355.662 l 1
 0 500 l 1
 250 644.338 l 1
 250 933.013 l 1
 500 788.675 l 1
 750 933.013 l 1
 750 644.338 l 1
 1000 500 l 1
EndSplineSet
EndChar

StartChar: period
Encoding: 46 46 79
Width: 1000
VWidth: 0
Flags: HW
LayerCount: 2
Back
Fore
SplineSet
756 500 m 5
 628 573.901 l 5
 628 721.702 l 5
 500 647.802 l 5
 372 721.702 l 5
 372 573.901 l 5
 244 500 l 5
 372 426.099 l 5
 372 278.298 l 5
 500 352.198 l 5
 628 278.298 l 5
 628 426.099 l 5
 756 500 l 5
1000 500 m 1
 750 355.662 l 1
 750 66.9873 l 1
 500 211.324 l 1
 250 66.9873 l 1
 250 355.662 l 1
 0 500 l 1
 250 644.338 l 1
 250 933.013 l 1
 500 788.675 l 1
 750 933.013 l 1
 750 644.338 l 1
 1000 500 l 1
EndSplineSet
EndChar

StartChar: slash
Encoding: 47 47 80
Width: 1000
VWidth: 0
Flags: HW
LayerCount: 2
Back
Fore
SplineSet
704.8 500 m 5
 602.4 559.121 l 5
 602.4 677.361 l 5
 500 618.241 l 5
 397.6 677.361 l 5
 397.6 559.121 l 5
 295.2 500 l 5
 397.6 440.879 l 5
 397.6 322.639 l 5
 500 381.759 l 5
 602.4 322.639 l 5
 602.4 440.879 l 5
 704.8 500 l 5
1000 500 m 1
 750 355.662 l 1
 750 66.9873 l 1
 500 211.324 l 1
 250 66.9873 l 1
 250 355.662 l 1
 0 500 l 1
 250 644.338 l 1
 250 933.013 l 1
 500 788.675 l 1
 750 933.013 l 1
 750 644.338 l 1
 1000 500 l 1
EndSplineSet
EndChar

StartChar: colon
Encoding: 58 58 81
Width: 1000
VWidth: 0
Flags: HW
LayerCount: 2
Back
Fore
SplineSet
663.84 500 m 5
 581.92 547.297 l 5
 581.92 641.889 l 5
 500 594.593 l 5
 418.08 641.889 l 5
 418.08 547.297 l 5
 336.16 500 l 5
 418.08 452.703 l 5
 418.08 358.111 l 5
 500 405.407 l 5
 581.92 358.111 l 5
 581.92 452.703 l 5
 663.84 500 l 5
1000 500 m 1
 750 355.662 l 1
 750 66.9873 l 1
 500 211.324 l 1
 250 66.9873 l 1
 250 355.662 l 1
 0 500 l 1
 250 644.338 l 1
 250 933.013 l 1
 500 788.675 l 1
 750 933.013 l 1
 750 644.338 l 1
 1000 500 l 1
EndSplineSet
EndChar

StartChar: semicolon
Encoding: 59 59 82
Width: 1000
VWidth: 0
Flags: HW
LayerCount: 2
Back
Fore
SplineSet
631.072 500 m 5
 565.536 537.838 l 5
 565.536 613.511 l 5
 500 575.674 l 5
 434.464 613.511 l 5
 434.464 537.838 l 5
 368.928 500 l 5
 434.464 462.162 l 5
 434.464 386.489 l 5
 500 424.326 l 5
 565.536 386.489 l 5
 565.536 462.162 l 5
 631.072 500 l 5
1000 500 m 1
 750 355.662 l 1
 750 66.9873 l 1
 500 211.324 l 1
 250 66.9873 l 1
 250 355.662 l 1
 0 500 l 1
 250 644.338 l 1
 250 933.013 l 1
 500 788.675 l 1
 750 933.013 l 1
 750 644.338 l 1
 1000 500 l 1
EndSplineSet
EndChar

StartChar: less
Encoding: 60 60 83
Width: 1000
VWidth: 0
Flags: HW
LayerCount: 2
Back
Fore
SplineSet
604.857 500 m 5
 552.429 530.271 l 5
 552.429 590.809 l 5
 500 560.539 l 5
 447.571 590.809 l 5
 447.571 530.271 l 5
 395.143 500 l 5
 447.571 469.729 l 5
 447.571 409.191 l 5
 500 439.461 l 5
 552.429 409.191 l 5
 552.429 469.729 l 5
 604.857 500 l 5
1000 500 m 1
 750 355.662 l 1
 750 66.9873 l 1
 500 211.324 l 1
 250 66.9873 l 1
 250 355.662 l 1
 0 500 l 1
 250 644.338 l 1
 250 933.013 l 1
 500 788.675 l 1
 750 933.013 l 1
 750 644.338 l 1
 1000 500 l 1
EndSplineSet
EndChar

StartChar: equal
Encoding: 61 61 84
Width: 1000
VWidth: 0
Flags: HW
LayerCount: 2
Back
Fore
SplineSet
583.886 500 m 5
 541.943 524.217 l 5
 541.943 572.646 l 5
 500 548.432 l 5
 458.057 572.646 l 5
 458.057 524.217 l 5
 416.114 500 l 5
 458.057 475.783 l 5
 458.057 427.354 l 5
 500 451.568 l 5
 541.943 427.354 l 5
 541.943 475.783 l 5
 583.886 500 l 5
1000 500 m 1
 750 355.662 l 1
 750 66.9873 l 1
 500 211.324 l 1
 250 66.9873 l 1
 250 355.662 l 1
 0 500 l 1
 250 644.338 l 1
 250 933.013 l 1
 500 788.675 l 1
 750 933.013 l 1
 750 644.338 l 1
 1000 500 l 1
EndSplineSet
EndChar

StartChar: greater
Encoding: 62 62 85
Width: 1000
VWidth: 0
Flags: HW
LayerCount: 2
Back
Fore
SplineSet
567.108 500 m 5
 533.555 519.373 l 5
 533.555 558.117 l 5
 500 538.745 l 5
 466.445 558.117 l 5
 466.445 519.373 l 5
 432.892 500 l 5
 466.445 480.627 l 5
 466.445 441.883 l 5
 500 461.255 l 5
 533.555 441.883 l 5
 533.555 480.627 l 5
 567.108 500 l 5
1000 500 m 1
 750 355.662 l 1
 750 66.9873 l 1
 500 211.324 l 1
 250 66.9873 l 1
 250 355.662 l 1
 0 500 l 1
 250 644.338 l 1
 250 933.013 l 1
 500 788.675 l 1
 750 933.013 l 1
 750 644.338 l 1
 1000 500 l 1
EndSplineSet
EndChar

StartChar: exclamdown
Encoding: 161 161 86
Width: 1000
VWidth: 0
Flags: H
LayerCount: 2
Back
Fore
SplineSet
300 1001 m 6
 700 1001 l 6
 865.6 1001 1000 866.6 1000 701 c 6
 1000 300 l 6
 1000 134.4 865.6 0 700 0 c 6
 300 0 l 6
 134.4 0 0 134.4 0 300 c 6
 0 701 l 6
 0 866.6 134.4 1001 300 1001 c 6
EndSplineSet
EndChar

StartChar: cent
Encoding: 162 162 87
Width: 1000
VWidth: 0
Flags: HW
LayerCount: 2
Back
Fore
SplineSet
340 900.9 m 6
 207.52 900.9 100 793.38 100 660.9 c 6
 100 340.1 l 6
 100 207.62 207.52 100.1 340 100.1 c 6
 660 100.1 l 6
 792.48 100.1 900 207.62 900 340.1 c 6
 900 660.9 l 6
 900 793.38 792.48 900.9 660 900.9 c 6
 340 900.9 l 6
300 1001 m 2
 700 1001 l 2
 865.6 1001 1000 866.6 1000 701 c 2
 1000 300 l 2
 1000 134.4 865.6 0 700 0 c 2
 300 0 l 2
 134.4 0 0 134.4 0 300 c 2
 0 701 l 2
 0 866.6 134.4 1001 300 1001 c 2
EndSplineSet
EndChar

StartChar: sterling
Encoding: 163 163 88
Width: 1000
VWidth: 0
Flags: HW
LayerCount: 2
Back
Fore
SplineSet
372 820.82 m 6
 266.016 820.82 180 734.804 180 628.82 c 6
 180 372.18 l 6
 180 266.196 266.016 180.18 372 180.18 c 6
 628 180.18 l 6
 733.984 180.18 820 266.196 820 372.18 c 6
 820 628.82 l 6
 820 734.804 733.984 820.82 628 820.82 c 6
 372 820.82 l 6
300 1001 m 2
 700 1001 l 2
 865.6 1001 1000 866.6 1000 701 c 2
 1000 300 l 2
 1000 134.4 865.6 0 700 0 c 2
 300 0 l 2
 134.4 0 0 134.4 0 300 c 2
 0 701 l 2
 0 866.6 134.4 1001 300 1001 c 2
EndSplineSet
EndChar

StartChar: currency
Encoding: 164 164 89
Width: 1000
VWidth: 0
Flags: HW
LayerCount: 2
Back
Fore
SplineSet
397.6 756.756 m 6
 312.812 756.756 244 687.943 244 603.156 c 6
 244 397.844 l 6
 244 313.057 312.812 244.244 397.6 244.244 c 6
 602.4 244.244 l 6
 687.188 244.244 756 313.057 756 397.844 c 6
 756 603.156 l 6
 756 687.943 687.188 756.756 602.4 756.756 c 6
 397.6 756.756 l 6
300 1001 m 2
 700 1001 l 2
 865.6 1001 1000 866.6 1000 701 c 2
 1000 300 l 2
 1000 134.4 865.6 0 700 0 c 2
 300 0 l 2
 134.4 0 0 134.4 0 300 c 2
 0 701 l 2
 0 866.6 134.4 1001 300 1001 c 2
EndSplineSet
EndChar

StartChar: yen
Encoding: 165 165 90
Width: 1000
VWidth: 0
Flags: HW
LayerCount: 2
Back
Fore
SplineSet
418.08 705.505 m 6
 350.25 705.505 295.2 650.455 295.2 582.625 c 6
 295.2 418.375 l 6
 295.2 350.545 350.25 295.495 418.08 295.495 c 6
 581.92 295.495 l 6
 649.75 295.495 704.8 350.545 704.8 418.375 c 6
 704.8 582.625 l 6
 704.8 650.455 649.75 705.505 581.92 705.505 c 6
 418.08 705.505 l 6
300 1001 m 2
 700 1001 l 2
 865.6 1001 1000 866.6 1000 701 c 2
 1000 300 l 2
 1000 134.4 865.6 0 700 0 c 2
 300 0 l 2
 134.4 0 0 134.4 0 300 c 2
 0 701 l 2
 0 866.6 134.4 1001 300 1001 c 2
EndSplineSet
EndChar

StartChar: brokenbar
Encoding: 166 166 91
Width: 1000
VWidth: 0
Flags: HW
LayerCount: 2
Back
Fore
SplineSet
434.464 664.504 m 6
 380.2 664.504 336.16 620.464 336.16 566.2 c 6
 336.16 434.8 l 6
 336.16 380.536 380.2 336.496 434.464 336.496 c 6
 565.536 336.496 l 6
 619.8 336.496 663.84 380.536 663.84 434.8 c 6
 663.84 566.2 l 6
 663.84 620.464 619.8 664.504 565.536 664.504 c 6
 434.464 664.504 l 6
300 1001 m 2
 700 1001 l 2
 865.6 1001 1000 866.6 1000 701 c 2
 1000 300 l 2
 1000 134.4 865.6 0 700 0 c 2
 300 0 l 2
 134.4 0 0 134.4 0 300 c 2
 0 701 l 2
 0 866.6 134.4 1001 300 1001 c 2
EndSplineSet
EndChar

StartChar: section
Encoding: 167 167 92
Width: 1000
VWidth: 0
Flags: HW
LayerCount: 2
Back
Fore
SplineSet
447.571 631.703 m 6
 404.16 631.703 368.928 596.471 368.928 553.061 c 6
 368.928 447.939 l 6
 368.928 404.529 404.16 369.297 447.571 369.297 c 6
 552.429 369.297 l 6
 595.84 369.297 631.072 404.529 631.072 447.939 c 6
 631.072 553.061 l 6
 631.072 596.471 595.84 631.703 552.429 631.703 c 6
 447.571 631.703 l 6
300 1001 m 2
 700 1001 l 2
 865.6 1001 1000 866.6 1000 701 c 2
 1000 300 l 2
 1000 134.4 865.6 0 700 0 c 2
 300 0 l 2
 134.4 0 0 134.4 0 300 c 2
 0 701 l 2
 0 866.6 134.4 1001 300 1001 c 2
EndSplineSet
EndChar

StartChar: dieresis
Encoding: 168 168 93
Width: 1000
VWidth: 0
Flags: HW
LayerCount: 2
Back
Fore
SplineSet
458.057 605.463 m 6
 423.328 605.463 395.143 577.276 395.143 542.549 c 6
 395.143 458.451 l 6
 395.143 423.724 423.328 395.537 458.057 395.537 c 6
 541.943 395.537 l 6
 576.672 395.537 604.857 423.724 604.857 458.451 c 6
 604.857 542.549 l 6
 604.857 577.276 576.672 605.463 541.943 605.463 c 6
 458.057 605.463 l 6
300 1001 m 2
 700 1001 l 2
 865.6 1001 1000 866.6 1000 701 c 2
 1000 300 l 2
 1000 134.4 865.6 0 700 0 c 2
 300 0 l 2
 134.4 0 0 134.4 0 300 c 2
 0 701 l 2
 0 866.6 134.4 1001 300 1001 c 2
EndSplineSet
EndChar

StartChar: copyright
Encoding: 169 169 94
Width: 1000
VWidth: 0
Flags: HW
LayerCount: 2
Back
Fore
SplineSet
466.445 584.471 m 6
 438.662 584.471 416.114 561.921 416.114 534.139 c 6
 416.114 466.861 l 6
 416.114 439.079 438.662 416.529 466.445 416.529 c 6
 533.555 416.529 l 6
 561.338 416.529 583.886 439.079 583.886 466.861 c 6
 583.886 534.139 l 6
 583.886 561.921 561.338 584.471 533.555 584.471 c 6
 466.445 584.471 l 6
300 1001 m 2
 700 1001 l 2
 865.6 1001 1000 866.6 1000 701 c 2
 1000 300 l 2
 1000 134.4 865.6 0 700 0 c 2
 300 0 l 2
 134.4 0 0 134.4 0 300 c 2
 0 701 l 2
 0 866.6 134.4 1001 300 1001 c 2
EndSplineSet
EndChar

StartChar: ordfeminine
Encoding: 170 170 95
Width: 1000
VWidth: 0
Flags: HW
LayerCount: 2
Back
Fore
SplineSet
473.156 567.677 m 6
 450.93 567.677 432.892 549.637 432.892 527.411 c 6
 432.892 473.589 l 6
 432.892 451.363 450.93 433.323 473.156 433.323 c 6
 526.844 433.323 l 6
 549.07 433.323 567.108 451.363 567.108 473.589 c 6
 567.108 527.411 l 6
 567.108 549.637 549.07 567.677 526.844 567.677 c 6
 473.156 567.677 l 6
300 1001 m 2
 700 1001 l 2
 865.6 1001 1000 866.6 1000 701 c 2
 1000 300 l 2
 1000 134.4 865.6 0 700 0 c 2
 300 0 l 2
 134.4 0 0 134.4 0 300 c 2
 0 701 l 2
 0 866.6 134.4 1001 300 1001 c 2
EndSplineSet
EndChar

StartChar: guillemotleft
Encoding: 171 171 96
Width: 1000
VWidth: 0
Flags: H
LayerCount: 2
Back
Fore
SplineSet
400 1001 m 2
 600 1001 l 2
 820.8 1001 1000 821.8 1000 601 c 2
 1000 400 l 2
 1000 179.2 820.8 0 600 0 c 6
 400 0 l 2
 179.2 0 0 179.2 0 400 c 2
 0 601 l 2
 0 821.8 179.2 1001 400 1001 c 2
EndSplineSet
EndChar

StartChar: logicalnot
Encoding: 172 172 97
Width: 1000
VWidth: 0
Flags: HW
LayerCount: 2
Back
Fore
SplineSet
420 900.9 m 6
 243.36 900.9 100 757.54 100 580.9 c 6
 100 420.1 l 6
 100 243.46 243.36 100.1 420 100.1 c 6
 580 100.1 l 6
 756.64 100.1 900 243.46 900 420.1 c 6
 900 580.9 l 6
 900 757.54 756.64 900.9 580 900.9 c 6
 420 900.9 l 6
400 1001 m 2
 600 1001 l 2
 820.8 1001 1000 821.8 1000 601 c 2
 1000 400 l 2
 1000 179.2 820.8 0 600 0 c 2
 400 0 l 2
 179.2 0 0 179.2 0 400 c 2
 0 601 l 2
 0 821.8 179.2 1001 400 1001 c 2
EndSplineSet
EndChar

StartChar: uni00AD
Encoding: 173 173 98
Width: 1000
VWidth: 0
Flags: HW
LayerCount: 2
Back
Fore
SplineSet
436 820.82 m 6
 294.688 820.82 180 706.132 180 564.82 c 6
 180 436.18 l 6
 180 294.868 294.688 180.18 436 180.18 c 6
 564 180.18 l 6
 705.312 180.18 820 294.868 820 436.18 c 6
 820 564.82 l 6
 820 706.132 705.312 820.82 564 820.82 c 6
 436 820.82 l 6
400 1001 m 2
 600 1001 l 2
 820.8 1001 1000 821.8 1000 601 c 2
 1000 400 l 2
 1000 179.2 820.8 0 600 0 c 2
 400 0 l 2
 179.2 0 0 179.2 0 400 c 2
 0 601 l 2
 0 821.8 179.2 1001 400 1001 c 2
EndSplineSet
EndChar

StartChar: registered
Encoding: 174 174 99
Width: 1000
VWidth: 0
Flags: HW
LayerCount: 2
Back
Fore
SplineSet
448.8 756.756 m 6
 335.751 756.756 244 665.006 244 551.956 c 6
 244 449.044 l 6
 244 335.994 335.751 244.244 448.8 244.244 c 6
 551.2 244.244 l 6
 664.249 244.244 756 335.994 756 449.044 c 6
 756 551.956 l 6
 756 665.006 664.249 756.756 551.2 756.756 c 6
 448.8 756.756 l 6
400 1001 m 2
 600 1001 l 2
 820.8 1001 1000 821.8 1000 601 c 2
 1000 400 l 2
 1000 179.2 820.8 0 600 0 c 2
 400 0 l 2
 179.2 0 0 179.2 0 400 c 2
 0 601 l 2
 0 821.8 179.2 1001 400 1001 c 2
EndSplineSet
EndChar

StartChar: macron
Encoding: 175 175 100
Width: 1000
VWidth: 0
Flags: HW
LayerCount: 2
Back
Fore
SplineSet
459.04 705.505 m 6
 368.601 705.505 295.2 632.104 295.2 541.665 c 6
 295.2 459.335 l 6
 295.2 368.896 368.601 295.495 459.04 295.495 c 6
 540.96 295.495 l 6
 631.399 295.495 704.8 368.896 704.8 459.335 c 6
 704.8 541.665 l 6
 704.8 632.104 631.399 705.505 540.96 705.505 c 6
 459.04 705.505 l 6
400 1001 m 2
 600 1001 l 2
 820.8 1001 1000 821.8 1000 601 c 2
 1000 400 l 2
 1000 179.2 820.8 0 600 0 c 2
 400 0 l 2
 179.2 0 0 179.2 0 400 c 2
 0 601 l 2
 0 821.8 179.2 1001 400 1001 c 2
EndSplineSet
EndChar

StartChar: degree
Encoding: 176 176 101
Width: 1000
VWidth: 0
Flags: HW
LayerCount: 2
Back
Fore
SplineSet
467.232 664.504 m 6
 394.881 664.504 336.16 605.783 336.16 533.432 c 6
 336.16 467.568 l 6
 336.16 395.217 394.881 336.496 467.232 336.496 c 6
 532.768 336.496 l 6
 605.119 336.496 663.84 395.217 663.84 467.568 c 6
 663.84 533.432 l 6
 663.84 605.783 605.119 664.504 532.768 664.504 c 6
 467.232 664.504 l 6
400 1001 m 2
 600 1001 l 2
 820.8 1001 1000 821.8 1000 601 c 2
 1000 400 l 2
 1000 179.2 820.8 0 600 0 c 2
 400 0 l 2
 179.2 0 0 179.2 0 400 c 2
 0 601 l 2
 0 821.8 179.2 1001 400 1001 c 2
EndSplineSet
EndChar

StartChar: plusminus
Encoding: 177 177 102
Width: 1000
VWidth: 0
Flags: HW
LayerCount: 2
Back
Fore
SplineSet
473.786 631.703 m 2
 415.904 631.703 368.928 584.727 368.928 526.846 c 2
 368.928 474.154 l 2
 368.928 416.273 415.904 369.297 473.786 369.297 c 2
 526.214 369.297 l 2
 584.096 369.297 631.072 416.273 631.072 474.154 c 2
 631.072 526.846 l 2
 631.072 584.727 584.096 631.703 526.214 631.703 c 2
 473.786 631.703 l 2
400 1001 m 2
 600 1001 l 2
 820.8 1001 1000 821.8 1000 601 c 2
 1000 400 l 2
 1000 179.2 820.8 0 600 0 c 2
 400 0 l 2
 179.2 0 0 179.2 0 400 c 2
 0 601 l 2
 0 821.8 179.2 1001 400 1001 c 2
EndSplineSet
EndChar

StartChar: uni00B2
Encoding: 178 178 103
Width: 1000
VWidth: 0
Flags: HW
LayerCount: 2
Back
Fore
SplineSet
479.029 605.463 m 2
 432.724 605.463 395.143 567.881 395.143 521.576 c 2
 395.143 479.424 l 2
 395.143 433.119 432.724 395.537 479.029 395.537 c 2
 520.971 395.537 l 2
 567.276 395.537 604.857 433.119 604.857 479.424 c 2
 604.857 521.576 l 2
 604.857 567.881 567.276 605.463 520.971 605.463 c 2
 479.029 605.463 l 2
400 1001 m 2
 600 1001 l 2
 820.8 1001 1000 821.8 1000 601 c 2
 1000 400 l 2
 1000 179.2 820.8 0 600 0 c 2
 400 0 l 2
 179.2 0 0 179.2 0 400 c 2
 0 601 l 2
 0 821.8 179.2 1001 400 1001 c 2
EndSplineSet
EndChar

StartChar: uni00B3
Encoding: 179 179 104
Width: 1000
VWidth: 0
Flags: HW
LayerCount: 2
Back
Fore
SplineSet
483.224 584.471 m 6
 446.179 584.471 416.114 554.404 416.114 517.361 c 6
 416.114 483.639 l 6
 416.114 446.596 446.179 416.529 483.224 416.529 c 6
 516.776 416.529 l 6
 553.821 416.529 583.886 446.596 583.886 483.639 c 6
 583.886 517.361 l 6
 583.886 554.404 553.821 584.471 516.776 584.471 c 6
 483.224 584.471 l 6
400 1001 m 2
 600 1001 l 2
 820.8 1001 1000 821.8 1000 601 c 2
 1000 400 l 2
 1000 179.2 820.8 0 600 0 c 2
 400 0 l 2
 179.2 0 0 179.2 0 400 c 2
 0 601 l 2
 0 821.8 179.2 1001 400 1001 c 2
EndSplineSet
EndChar

StartChar: acute
Encoding: 180 180 105
Width: 1000
VWidth: 0
Flags: HW
LayerCount: 2
Back
Fore
SplineSet
486.579 567.677 m 6
 456.943 567.677 432.892 543.623 432.892 513.989 c 6
 432.892 487.011 l 6
 432.892 457.377 456.943 433.323 486.579 433.323 c 6
 513.421 433.323 l 6
 543.057 433.323 567.108 457.377 567.108 487.011 c 6
 567.108 513.989 l 6
 567.108 543.623 543.057 567.677 513.421 567.677 c 6
 486.579 567.677 l 6
400 1001 m 2
 600 1001 l 2
 820.8 1001 1000 821.8 1000 601 c 2
 1000 400 l 2
 1000 179.2 820.8 0 600 0 c 2
 400 0 l 2
 179.2 0 0 179.2 0 400 c 2
 0 601 l 2
 0 821.8 179.2 1001 400 1001 c 2
EndSplineSet
EndChar

StartChar: uni00B5
Encoding: 181 181 106
Width: 1000
VWidth: 0
Flags: H
LayerCount: 2
Back
Fore
SplineSet
0 1000 m 25
 1000 0 l 25
 0 0 l 29
 0 1000 l 25
EndSplineSet
EndChar

StartChar: paragraph
Encoding: 182 182 107
Width: 1000
VWidth: 0
Flags: HW
LayerCount: 2
Back
Fore
SplineSet
58.5996 858.6 m 29
 58.5996 58.5996 l 29
 858.6 58.5996 l 29
 58.5996 858.6 l 29
0 1000 m 25
 1000 0 l 25
 0 0 l 25
 0 1000 l 25
EndSplineSet
EndChar

StartChar: periodcentered
Encoding: 183 183 108
Width: 1000
VWidth: 0
Flags: HW
LayerCount: 2
Back
Fore
SplineSet
105.5 745.5 m 29
 105.5 105.5 l 29
 745.5 105.5 l 29
 105.5 745.5 l 29
0 1000 m 25
 1000 0 l 25
 0 0 l 25
 0 1000 l 25
EndSplineSet
EndChar

StartChar: cedilla
Encoding: 184 184 109
Width: 1000
VWidth: 0
Flags: HW
LayerCount: 2
Back
Fore
SplineSet
143 655 m 29
 143 143 l 29
 655 143 l 29
 143 655 l 29
0 1000 m 25
 1000 0 l 25
 0 0 l 25
 0 1000 l 25
EndSplineSet
EndChar

StartChar: uni00B9
Encoding: 185 185 110
Width: 1000
VWidth: 0
Flags: HW
LayerCount: 2
Back
Fore
SplineSet
173.2 582.8 m 29
 173.2 173.2 l 29
 582.8 173.2 l 29
 173.2 582.8 l 29
0 1000 m 25
 1000 0 l 25
 0 0 l 25
 0 1000 l 25
EndSplineSet
EndChar

StartChar: ordmasculine
Encoding: 186 186 111
Width: 1000
VWidth: 0
Flags: HW
LayerCount: 2
Back
Fore
SplineSet
197.16 524.84 m 29
 197.16 197.16 l 29
 524.84 197.16 l 29
 197.16 524.84 l 29
0 1000 m 25
 1000 0 l 25
 0 0 l 25
 0 1000 l 25
EndSplineSet
EndChar

StartChar: guillemotright
Encoding: 187 187 112
Width: 1000
VWidth: 0
Flags: HW
LayerCount: 2
Back
Fore
SplineSet
215.928 478.072 m 29
 215.928 215.928 l 29
 478.072 215.928 l 29
 215.928 478.072 l 29
0 1000 m 25
 1000 0 l 25
 0 0 l 25
 0 1000 l 25
EndSplineSet
EndChar

StartChar: onequarter
Encoding: 188 188 113
Width: 1000
VWidth: 0
Flags: HW
LayerCount: 2
Back
Fore
SplineSet
232.143 441.857 m 29
 232.143 232.143 l 29
 441.857 232.143 l 29
 232.143 441.857 l 29
0 1000 m 25
 1000 0 l 25
 0 0 l 25
 0 1000 l 25
EndSplineSet
EndChar

StartChar: onehalf
Encoding: 189 189 114
Width: 1000
VWidth: 0
Flags: HW
LayerCount: 2
Back
Fore
SplineSet
244.114 411.886 m 29
 244.114 244.114 l 29
 411.886 244.114 l 29
 244.114 411.886 l 29
0 1000 m 25
 1000 0 l 25
 0 0 l 25
 0 1000 l 25
EndSplineSet
EndChar

StartChar: threequarters
Encoding: 190 190 115
Width: 1000
VWidth: 0
Flags: HW
LayerCount: 2
Back
Fore
SplineSet
253.892 388.108 m 29
 253.892 253.892 l 29
 388.108 253.892 l 29
 253.892 388.108 l 29
0 1000 m 25
 1000 0 l 25
 0 0 l 25
 0 1000 l 25
EndSplineSet
EndChar

StartChar: Agrave
Encoding: 192 192 116
Width: 1000
VWidth: 0
Flags: HW
LayerCount: 2
Back
Fore
SplineSet
500 934.1 m 1
 1000.65 66.9502 l 1
 500 96.9502 l 5
 -0.649414 66.9502 l 1
 500 934.1 l 1
EndSplineSet
EndChar

StartChar: Aacute
Encoding: 193 193 117
Width: 1000
VWidth: 0
Flags: HW
LayerCount: 2
Back
Fore
SplineSet
500 934.1 m 1
 1000.65 66.9502 l 1
 500 126.95 l 5
 -0.649414 66.9502 l 1
 500 934.1 l 1
EndSplineSet
EndChar

StartChar: Acircumflex
Encoding: 194 194 118
Width: 1000
VWidth: 0
Flags: HW
LayerCount: 2
Back
Fore
SplineSet
500 934.1 m 1
 1000.65 66.9502 l 1
 500 156.95 l 5
 -0.649414 66.9502 l 1
 500 934.1 l 1
EndSplineSet
EndChar

StartChar: Atilde
Encoding: 195 195 119
Width: 1000
VWidth: 0
Flags: HW
LayerCount: 2
Back
Fore
SplineSet
500 934.1 m 1
 1000.65 66.9502 l 1
 500 186.95 l 5
 -0.649414 66.9502 l 1
 500 934.1 l 1
EndSplineSet
EndChar

StartChar: Adieresis
Encoding: 196 196 120
Width: 1000
VWidth: 0
Flags: HW
LayerCount: 2
Back
Fore
SplineSet
500 934.1 m 1
 1000.65 66.9502 l 1
 500 216.95 l 5
 -0.649414 66.9502 l 1
 500 934.1 l 1
EndSplineSet
EndChar

StartChar: Aring
Encoding: 197 197 121
Width: 1000
VWidth: 0
Flags: HW
LayerCount: 2
Back
Fore
SplineSet
500 934.1 m 1
 1000.65 66.9502 l 1
 500 246.95 l 5
 -0.649414 66.9502 l 1
 500 934.1 l 1
EndSplineSet
EndChar

StartChar: AE
Encoding: 198 198 122
Width: 1000
VWidth: 0
Flags: HW
LayerCount: 2
Back
Fore
SplineSet
500 934.1 m 1
 1000.65 66.9502 l 1
 500 276.95 l 5
 -0.649414 66.9502 l 1
 500 934.1 l 1
EndSplineSet
EndChar

StartChar: Ccedilla
Encoding: 199 199 123
Width: 1000
VWidth: 0
Flags: HW
LayerCount: 2
Back
Fore
SplineSet
500 934.1 m 1
 1000.65 66.9502 l 1
 500 306.95 l 5
 -0.649414 66.9502 l 1
 500 934.1 l 1
EndSplineSet
EndChar

StartChar: Egrave
Encoding: 200 200 124
Width: 1000
VWidth: 0
Flags: HW
LayerCount: 2
Back
Fore
SplineSet
500 934.1 m 1
 1000.65 66.9502 l 1
 500 336.95 l 5
 -0.649414 66.9502 l 1
 500 934.1 l 1
EndSplineSet
EndChar

StartChar: Eacute
Encoding: 201 201 125
Width: 1000
VWidth: 0
Flags: HW
LayerCount: 2
Back
Fore
SplineSet
500 934.1 m 1
 1000.65 66.9502 l 1
 500 366.95 l 5
 -0.649414 66.9502 l 1
 500 934.1 l 1
EndSplineSet
EndChar

StartChar: Eth
Encoding: 208 208 126
Width: 1000
VWidth: 0
Flags: HW
LayerCount: 2
Back
Fore
SplineSet
404.055 595.945 m 5
 368.937 535.118 l 5
 368.937 464.882 l 5
 404.055 404.055 l 5
 464.881 368.937 l 5
 535.118 368.937 l 5
 595.945 404.055 l 5
 631.063 464.881 l 5
 631.063 535.118 l 5
 595.945 595.945 l 5
 535.118 631.063 l 5
 464.882 631.063 l 5
 404.055 595.945 l 5
134 866 m 1
 366.035 999.965 l 1
 633.965 999.965 l 1
 866 866 l 1
 999.965 633.965 l 1
 999.965 366.034 l 1
 866 134 l 1
 633.965 0.0341797 l 1
 366.034 0.0351562 l 1
 134 134 l 1
 0.0351562 366.035 l 1
 0.0351562 633.965 l 1
 134 866 l 1
EndSplineSet
EndChar

StartChar: Ecircumflex
Encoding: 202 202 127
Width: 1000
VWidth: 0
Flags: H
LayerCount: 2
Back
Fore
SplineSet
134 866 m 5
 366.035 999.965 l 5
 633.965 999.965 l 5
 866 866 l 5
 999.965 633.965 l 5
 999.965 366.034 l 5
 866 134 l 5
 633.965 0.0341797 l 5
 366.034 0.0351562 l 5
 134 134 l 5
 0.0351562 366.035 l 5
 0.0351562 633.965 l 5
 134 866 l 5
EndSplineSet
EndChar

StartChar: Edieresis
Encoding: 203 203 128
Width: 1000
VWidth: 0
Flags: HW
LayerCount: 2
Back
Fore
SplineSet
207.2 792.8 m 5
 100.028 607.172 l 5
 100.028 392.828 l 5
 207.2 207.2 l 5
 392.827 100.028 l 5
 607.172 100.027 l 5
 792.8 207.2 l 5
 899.972 392.827 l 5
 899.972 607.172 l 5
 792.8 792.8 l 5
 607.172 899.972 l 5
 392.828 899.972 l 5
 207.2 792.8 l 5
134 866 m 1
 366.035 999.965 l 1
 633.965 999.965 l 1
 866 866 l 1
 999.965 633.965 l 1
 999.965 366.034 l 1
 866 134 l 1
 633.965 0.0341797 l 1
 366.034 0.0351562 l 1
 134 134 l 1
 0.0351562 366.035 l 1
 0.0351562 633.965 l 1
 134 866 l 1
EndSplineSet
EndChar

StartChar: Igrave
Encoding: 204 204 129
Width: 1000
VWidth: 0
Flags: HW
LayerCount: 2
Back
Fore
SplineSet
265.76 734.24 m 5
 180.022 585.737 l 5
 180.022 414.263 l 5
 265.76 265.76 l 5
 414.262 180.022 l 5
 585.737 180.021 l 5
 734.24 265.76 l 5
 819.978 414.262 l 5
 819.978 585.737 l 5
 734.24 734.24 l 5
 585.737 819.978 l 5
 414.263 819.978 l 5
 265.76 734.24 l 5
134 866 m 1
 366.035 999.965 l 1
 633.965 999.965 l 1
 866 866 l 1
 999.965 633.965 l 1
 999.965 366.034 l 1
 866 134 l 1
 633.965 0.0341797 l 1
 366.034 0.0351562 l 1
 134 134 l 1
 0.0351562 366.035 l 1
 0.0351562 633.965 l 1
 134 866 l 1
EndSplineSet
EndChar

StartChar: Iacute
Encoding: 205 205 130
Width: 1000
VWidth: 0
Flags: HW
LayerCount: 2
Back
Fore
SplineSet
312.607 687.393 m 5
 244.018 568.59 l 5
 244.018 431.41 l 5
 312.607 312.607 l 5
 431.409 244.018 l 5
 568.59 244.018 l 5
 687.393 312.607 l 5
 755.982 431.409 l 5
 755.982 568.59 l 5
 687.393 687.393 l 5
 568.59 755.982 l 5
 431.41 755.982 l 5
 312.607 687.393 l 5
134 866 m 1
 366.035 999.965 l 1
 633.965 999.965 l 1
 866 866 l 1
 999.965 633.965 l 1
 999.965 366.034 l 1
 866 134 l 1
 633.965 0.0341797 l 1
 366.034 0.0351562 l 1
 134 134 l 1
 0.0351562 366.035 l 1
 0.0351562 633.965 l 1
 134 866 l 1
EndSplineSet
EndChar

StartChar: Icircumflex
Encoding: 206 206 131
Width: 1000
VWidth: 0
Flags: HW
LayerCount: 2
Back
Fore
SplineSet
350.086 649.914 m 5
 295.214 554.872 l 5
 295.214 445.128 l 5
 350.086 350.086 l 5
 445.127 295.214 l 5
 554.872 295.214 l 5
 649.914 350.086 l 5
 704.786 445.127 l 5
 704.786 554.872 l 5
 649.914 649.914 l 5
 554.872 704.786 l 5
 445.128 704.786 l 5
 350.086 649.914 l 5
134 866 m 1
 366.035 999.965 l 1
 633.965 999.965 l 1
 866 866 l 1
 999.965 633.965 l 1
 999.965 366.034 l 1
 866 134 l 1
 633.965 0.0341797 l 1
 366.034 0.0351562 l 1
 134 134 l 1
 0.0351562 366.035 l 1
 0.0351562 633.965 l 1
 134 866 l 1
EndSplineSet
EndChar

StartChar: Idieresis
Encoding: 207 207 132
Width: 1000
VWidth: 0
Flags: HW
LayerCount: 2
Back
Fore
SplineSet
380.068 619.932 m 5
 336.171 543.897 l 5
 336.171 456.103 l 5
 380.068 380.068 l 5
 456.102 336.171 l 5
 543.897 336.171 l 5
 619.932 380.068 l 5
 663.829 456.102 l 5
 663.829 543.897 l 5
 619.932 619.932 l 5
 543.897 663.829 l 5
 456.103 663.829 l 5
 380.068 619.932 l 5
134 866 m 1
 366.035 999.965 l 1
 633.965 999.965 l 1
 866 866 l 1
 999.965 633.965 l 1
 999.965 366.034 l 1
 866 134 l 1
 633.965 0.0341797 l 1
 366.034 0.0351562 l 1
 134 134 l 1
 0.0351562 366.035 l 1
 0.0351562 633.965 l 1
 134 866 l 1
EndSplineSet
EndChar

StartChar: Ntilde
Encoding: 209 209 133
Width: 1000
VWidth: 0
Flags: HW
LayerCount: 2
Back
Fore
SplineSet
423.244 576.756 m 5
 395.149 528.095 l 5
 395.149 471.905 l 5
 423.244 423.244 l 5
 471.904 395.149 l 5
 528.095 395.149 l 5
 576.756 423.244 l 5
 604.851 471.904 l 5
 604.851 528.095 l 5
 576.756 576.756 l 5
 528.095 604.851 l 5
 471.905 604.851 l 5
 423.244 576.756 l 5
134 866 m 1
 366.035 999.965 l 1
 633.965 999.965 l 1
 866 866 l 1
 999.965 633.965 l 1
 999.965 366.034 l 1
 866 134 l 1
 633.965 0.0341797 l 1
 366.034 0.0351562 l 1
 134 134 l 1
 0.0351562 366.035 l 1
 0.0351562 633.965 l 1
 134 866 l 1
EndSplineSet
EndChar

StartChar: Ograve
Encoding: 210 210 134
Width: 1000
VWidth: 0
Flags: HW
LayerCount: 2
Back
Fore
SplineSet
438.596 561.404 m 5
 416.119 522.476 l 5
 416.119 477.524 l 5
 438.596 438.596 l 5
 477.523 416.119 l 5
 522.476 416.119 l 5
 561.404 438.596 l 5
 583.881 477.523 l 5
 583.881 522.476 l 5
 561.404 561.404 l 5
 522.476 583.881 l 5
 477.524 583.881 l 5
 438.596 561.404 l 5
134 866 m 1
 366.035 999.965 l 1
 633.965 999.965 l 1
 866 866 l 1
 999.965 633.965 l 1
 999.965 366.034 l 1
 866 134 l 1
 633.965 0.0341797 l 1
 366.034 0.0351562 l 1
 134 134 l 1
 0.0351562 366.035 l 1
 0.0351562 633.965 l 1
 134 866 l 1
EndSplineSet
EndChar

StartChar: Oacute
Encoding: 211 211 135
Width: 1000
VWidth: 0
Flags: HW
LayerCount: 2
Back
Fore
SplineSet
450.877 549.123 m 5
 432.896 517.98 l 5
 432.896 482.02 l 5
 450.877 450.877 l 5
 482.019 432.896 l 5
 517.98 432.896 l 5
 549.123 450.877 l 5
 567.104 482.019 l 5
 567.104 517.98 l 5
 549.123 549.123 l 5
 517.98 567.104 l 5
 482.02 567.104 l 5
 450.877 549.123 l 5
134 866 m 1
 366.035 999.965 l 1
 633.965 999.965 l 1
 866 866 l 1
 999.965 633.965 l 1
 999.965 366.034 l 1
 866 134 l 1
 633.965 0.0341797 l 1
 366.034 0.0351562 l 1
 134 134 l 1
 0.0351562 366.035 l 1
 0.0351562 633.965 l 1
 134 866 l 1
EndSplineSet
EndChar

StartChar: Ocircumflex
Encoding: 212 212 136
Width: 1000
VWidth: 0
Flags: H
LayerCount: 2
Back
Fore
SplineSet
866 134 m 1
 649.419 241.199 l 1
 633.965 0.0341797 l 1
 500 201.162 l 1
 366.035 0.0341797 l 1
 350.581 241.199 l 1
 134 134 l 1
 241.199 350.581 l 1
 0.0351562 366.035 l 1
 201.162 500 l 1
 0.0351562 633.965 l 1
 241.199 649.419 l 1
 134 866 l 1
 350.581 758.801 l 1
 366.035 999.965 l 1
 500 798.838 l 1
 633.965 999.965 l 1
 649.419 758.801 l 1
 866 866 l 1
 758.801 649.419 l 1
 999.965 633.965 l 1
 798.838 500 l 1
 999.965 366.034 l 1
 758.801 350.581 l 1
 866 134 l 1
EndSplineSet
EndChar

StartChar: Otilde
Encoding: 213 213 137
Width: 1000
VWidth: 0
Flags: HW
LayerCount: 2
Back
Fore
SplineSet
792.8 207.2 m 5
 707.041 380.465 l 5
 899.972 392.827 l 5
 739.07 500 l 5
 899.972 607.172 l 5
 707.041 619.535 l 5
 792.8 792.8 l 5
 619.535 707.041 l 5
 607.172 899.972 l 5
 500 739.07 l 5
 392.828 899.972 l 5
 380.465 707.041 l 5
 207.2 792.8 l 5
 292.959 619.535 l 5
 100.028 607.172 l 5
 260.93 500 l 5
 100.028 392.828 l 5
 292.959 380.465 l 5
 207.2 207.2 l 5
 380.465 292.959 l 5
 392.828 100.027 l 5
 500 260.93 l 5
 607.172 100.027 l 5
 619.535 292.959 l 5
 792.8 207.2 l 5
866 134 m 1
 649.419 241.199 l 1
 633.965 0.0341797 l 1
 500 201.162 l 1
 366.035 0.0341797 l 1
 350.581 241.199 l 1
 134 134 l 1
 241.199 350.581 l 1
 0.0351562 366.035 l 1
 201.162 500 l 1
 0.0351562 633.965 l 1
 241.199 649.419 l 1
 134 866 l 1
 350.581 758.801 l 1
 366.035 999.965 l 1
 500 798.838 l 1
 633.965 999.965 l 1
 649.419 758.801 l 1
 866 866 l 1
 758.801 649.419 l 1
 999.965 633.965 l 1
 798.838 500 l 1
 999.965 366.034 l 1
 758.801 350.581 l 1
 866 134 l 1
EndSplineSet
EndChar

StartChar: Odieresis
Encoding: 214 214 138
Width: 1000
VWidth: 0
Flags: HW
LayerCount: 2
Back
Fore
SplineSet
734.24 265.76 m 5
 665.633 404.372 l 5
 819.978 414.262 l 5
 691.256 500 l 5
 819.978 585.737 l 5
 665.633 595.628 l 5
 734.24 734.24 l 5
 595.628 665.633 l 5
 585.737 819.978 l 5
 500 691.256 l 5
 414.263 819.978 l 5
 404.372 665.633 l 5
 265.76 734.24 l 5
 334.367 595.628 l 5
 180.022 585.737 l 5
 308.744 500 l 5
 180.022 414.263 l 5
 334.367 404.372 l 5
 265.76 265.76 l 5
 404.372 334.367 l 5
 414.263 180.021 l 5
 500 308.744 l 5
 585.737 180.021 l 5
 595.628 334.367 l 5
 734.24 265.76 l 5
866 134 m 1
 649.419 241.199 l 1
 633.965 0.0341797 l 1
 500 201.162 l 1
 366.035 0.0341797 l 1
 350.581 241.199 l 1
 134 134 l 1
 241.199 350.581 l 1
 0.0351562 366.035 l 1
 201.162 500 l 1
 0.0351562 633.965 l 1
 241.199 649.419 l 1
 134 866 l 1
 350.581 758.801 l 1
 366.035 999.965 l 1
 500 798.838 l 1
 633.965 999.965 l 1
 649.419 758.801 l 1
 866 866 l 1
 758.801 649.419 l 1
 999.965 633.965 l 1
 798.838 500 l 1
 999.965 366.034 l 1
 758.801 350.581 l 1
 866 134 l 1
EndSplineSet
EndChar

StartChar: multiply
Encoding: 215 215 139
Width: 1000
VWidth: 0
Flags: HW
LayerCount: 2
Back
Fore
SplineSet
687.393 312.607 m 5
 632.506 423.498 l 5
 755.982 431.409 l 5
 653.005 500 l 5
 755.982 568.59 l 5
 632.506 576.502 l 5
 687.393 687.393 l 5
 576.502 632.506 l 5
 568.59 755.982 l 5
 500 653.005 l 5
 431.41 755.982 l 5
 423.498 632.506 l 5
 312.607 687.393 l 5
 367.494 576.502 l 5
 244.018 568.59 l 5
 346.995 500 l 5
 244.018 431.41 l 5
 367.494 423.498 l 5
 312.607 312.607 l 5
 423.498 367.494 l 5
 431.41 244.018 l 5
 500 346.995 l 5
 568.59 244.018 l 5
 576.502 367.494 l 5
 687.393 312.607 l 5
866 134 m 1
 649.419 241.199 l 1
 633.965 0.0341797 l 1
 500 201.162 l 1
 366.035 0.0341797 l 1
 350.581 241.199 l 1
 134 134 l 1
 241.199 350.581 l 1
 0.0351562 366.035 l 1
 201.162 500 l 1
 0.0351562 633.965 l 1
 241.199 649.419 l 1
 134 866 l 1
 350.581 758.801 l 1
 366.035 999.965 l 1
 500 798.838 l 1
 633.965 999.965 l 1
 649.419 758.801 l 1
 866 866 l 1
 758.801 649.419 l 1
 999.965 633.965 l 1
 798.838 500 l 1
 999.965 366.034 l 1
 758.801 350.581 l 1
 866 134 l 1
EndSplineSet
EndChar

StartChar: Oslash
Encoding: 216 216 140
Width: 1000
VWidth: 0
Flags: HW
LayerCount: 2
Back
Fore
SplineSet
649.914 350.086 m 5
 606.005 438.799 l 5
 704.786 445.127 l 5
 622.404 500 l 5
 704.786 554.872 l 5
 606.005 561.201 l 5
 649.914 649.914 l 5
 561.201 606.005 l 5
 554.872 704.786 l 5
 500 622.404 l 5
 445.128 704.786 l 5
 438.799 606.005 l 5
 350.086 649.914 l 5
 393.995 561.201 l 5
 295.214 554.872 l 5
 377.596 500 l 5
 295.214 445.128 l 5
 393.995 438.799 l 5
 350.086 350.086 l 5
 438.799 393.995 l 5
 445.128 295.214 l 5
 500 377.596 l 5
 554.872 295.214 l 5
 561.201 393.995 l 5
 649.914 350.086 l 5
866 134 m 1
 649.419 241.199 l 1
 633.965 0.0341797 l 1
 500 201.162 l 1
 366.035 0.0341797 l 1
 350.581 241.199 l 1
 134 134 l 1
 241.199 350.581 l 1
 0.0351562 366.035 l 1
 201.162 500 l 1
 0.0351562 633.965 l 1
 241.199 649.419 l 1
 134 866 l 1
 350.581 758.801 l 1
 366.035 999.965 l 1
 500 798.838 l 1
 633.965 999.965 l 1
 649.419 758.801 l 1
 866 866 l 1
 758.801 649.419 l 1
 999.965 633.965 l 1
 798.838 500 l 1
 999.965 366.034 l 1
 758.801 350.581 l 1
 866 134 l 1
EndSplineSet
EndChar

StartChar: Ugrave
Encoding: 217 217 141
Width: 1000
VWidth: 0
Flags: HW
LayerCount: 2
Back
Fore
SplineSet
619.932 380.068 m 5
 584.804 451.039 l 5
 663.829 456.102 l 5
 597.924 500 l 5
 663.829 543.897 l 5
 584.804 548.961 l 5
 619.932 619.932 l 5
 548.961 584.804 l 5
 543.897 663.829 l 5
 500 597.924 l 5
 456.103 663.829 l 5
 451.039 584.804 l 5
 380.068 619.932 l 5
 415.196 548.961 l 5
 336.171 543.897 l 5
 402.076 500 l 5
 336.171 456.103 l 5
 415.196 451.039 l 5
 380.068 380.068 l 5
 451.039 415.196 l 5
 456.103 336.171 l 5
 500 402.076 l 5
 543.897 336.171 l 5
 548.961 415.196 l 5
 619.932 380.068 l 5
866 134 m 1
 649.419 241.199 l 1
 633.965 0.0341797 l 1
 500 201.162 l 1
 366.035 0.0341797 l 1
 350.581 241.199 l 1
 134 134 l 1
 241.199 350.581 l 1
 0.0351562 366.035 l 1
 201.162 500 l 1
 0.0351562 633.965 l 1
 241.199 649.419 l 1
 134 866 l 1
 350.581 758.801 l 1
 366.035 999.965 l 1
 500 798.838 l 1
 633.965 999.965 l 1
 649.419 758.801 l 1
 866 866 l 1
 758.801 649.419 l 1
 999.965 633.965 l 1
 798.838 500 l 1
 999.965 366.034 l 1
 758.801 350.581 l 1
 866 134 l 1
EndSplineSet
EndChar

StartChar: Uacute
Encoding: 218 218 142
Width: 1000
VWidth: 0
Flags: HW
LayerCount: 2
Back
Fore
SplineSet
595.945 404.055 m 5
 567.843 460.831 l 5
 631.063 464.881 l 5
 578.339 500 l 5
 631.063 535.118 l 5
 567.843 539.169 l 5
 595.945 595.945 l 5
 539.169 567.843 l 5
 535.118 631.063 l 5
 500 578.339 l 5
 464.882 631.063 l 5
 460.831 567.843 l 5
 404.055 595.945 l 5
 432.157 539.169 l 5
 368.937 535.118 l 5
 421.661 500 l 5
 368.937 464.882 l 5
 432.157 460.831 l 5
 404.055 404.055 l 5
 460.831 432.157 l 5
 464.882 368.937 l 5
 500 421.661 l 5
 535.118 368.937 l 5
 539.169 432.157 l 5
 595.945 404.055 l 5
866 134 m 1
 649.419 241.199 l 1
 633.965 0.0341797 l 1
 500 201.162 l 1
 366.035 0.0341797 l 1
 350.581 241.199 l 1
 134 134 l 1
 241.199 350.581 l 1
 0.0351562 366.035 l 1
 201.162 500 l 1
 0.0351562 633.965 l 1
 241.199 649.419 l 1
 134 866 l 1
 350.581 758.801 l 1
 366.035 999.965 l 1
 500 798.838 l 1
 633.965 999.965 l 1
 649.419 758.801 l 1
 866 866 l 1
 758.801 649.419 l 1
 999.965 633.965 l 1
 798.838 500 l 1
 999.965 366.034 l 1
 758.801 350.581 l 1
 866 134 l 1
EndSplineSet
EndChar

StartChar: Ucircumflex
Encoding: 219 219 143
Width: 1000
VWidth: 0
Flags: HW
LayerCount: 2
Back
Fore
SplineSet
576.756 423.244 m 5
 554.274 468.665 l 5
 604.851 471.904 l 5
 562.671 500 l 5
 604.851 528.095 l 5
 554.274 531.335 l 5
 576.756 576.756 l 5
 531.335 554.274 l 5
 528.095 604.851 l 5
 500 562.671 l 5
 471.905 604.851 l 5
 468.665 554.274 l 5
 423.244 576.756 l 5
 445.726 531.335 l 5
 395.149 528.095 l 5
 437.329 500 l 5
 395.149 471.905 l 5
 445.726 468.665 l 5
 423.244 423.244 l 5
 468.665 445.726 l 5
 471.905 395.149 l 5
 500 437.329 l 5
 528.095 395.149 l 5
 531.335 445.726 l 5
 576.756 423.244 l 5
866 134 m 1
 649.419 241.199 l 1
 633.965 0.0341797 l 1
 500 201.162 l 1
 366.035 0.0341797 l 1
 350.581 241.199 l 1
 134 134 l 1
 241.199 350.581 l 1
 0.0351562 366.035 l 1
 201.162 500 l 1
 0.0351562 633.965 l 1
 241.199 649.419 l 1
 134 866 l 1
 350.581 758.801 l 1
 366.035 999.965 l 1
 500 798.838 l 1
 633.965 999.965 l 1
 649.419 758.801 l 1
 866 866 l 1
 758.801 649.419 l 1
 999.965 633.965 l 1
 798.838 500 l 1
 999.965 366.034 l 1
 758.801 350.581 l 1
 866 134 l 1
EndSplineSet
EndChar

StartChar: Udieresis
Encoding: 220 220 144
Width: 1000
VWidth: 0
Flags: HW
LayerCount: 2
Back
Fore
SplineSet
561.404 438.596 m 5
 543.42 474.932 l 5
 583.881 477.523 l 5
 550.137 500 l 5
 583.881 522.476 l 5
 543.42 525.068 l 5
 561.404 561.404 l 5
 525.068 543.42 l 5
 522.476 583.881 l 5
 500 550.137 l 5
 477.524 583.881 l 5
 474.932 543.42 l 5
 438.596 561.404 l 5
 456.58 525.068 l 5
 416.119 522.476 l 5
 449.863 500 l 5
 416.119 477.524 l 5
 456.58 474.932 l 5
 438.596 438.596 l 5
 474.932 456.58 l 5
 477.524 416.119 l 5
 500 449.863 l 5
 522.476 416.119 l 5
 525.068 456.58 l 5
 561.404 438.596 l 5
866 134 m 1
 649.419 241.199 l 1
 633.965 0.0341797 l 1
 500 201.162 l 1
 366.035 0.0341797 l 1
 350.581 241.199 l 1
 134 134 l 1
 241.199 350.581 l 1
 0.0351562 366.035 l 1
 201.162 500 l 1
 0.0351562 633.965 l 1
 241.199 649.419 l 1
 134 866 l 1
 350.581 758.801 l 1
 366.035 999.965 l 1
 500 798.838 l 1
 633.965 999.965 l 1
 649.419 758.801 l 1
 866 866 l 1
 758.801 649.419 l 1
 999.965 633.965 l 1
 798.838 500 l 1
 999.965 366.034 l 1
 758.801 350.581 l 1
 866 134 l 1
EndSplineSet
EndChar

StartChar: Yacute
Encoding: 221 221 145
Width: 1000
VWidth: 0
Flags: HW
LayerCount: 2
Back
Fore
SplineSet
549.123 450.877 m 5
 534.736 479.945 l 5
 567.104 482.019 l 5
 540.109 500 l 5
 567.104 517.98 l 5
 534.736 520.055 l 5
 549.123 549.123 l 5
 520.055 534.736 l 5
 517.98 567.104 l 5
 500 540.109 l 5
 482.02 567.104 l 5
 479.945 534.736 l 5
 450.877 549.123 l 5
 465.264 520.055 l 5
 432.896 517.98 l 5
 459.891 500 l 5
 432.896 482.02 l 5
 465.264 479.945 l 5
 450.877 450.877 l 5
 479.945 465.264 l 5
 482.02 432.896 l 5
 500 459.891 l 5
 517.98 432.896 l 5
 520.055 465.264 l 5
 549.123 450.877 l 5
866 134 m 1
 649.419 241.199 l 1
 633.965 0.0341797 l 1
 500 201.162 l 1
 366.035 0.0341797 l 1
 350.581 241.199 l 1
 134 134 l 1
 241.199 350.581 l 1
 0.0351562 366.035 l 1
 201.162 500 l 1
 0.0351562 633.965 l 1
 241.199 649.419 l 1
 134 866 l 1
 350.581 758.801 l 1
 366.035 999.965 l 1
 500 798.838 l 1
 633.965 999.965 l 1
 649.419 758.801 l 1
 866 866 l 1
 758.801 649.419 l 1
 999.965 633.965 l 1
 798.838 500 l 1
 999.965 366.034 l 1
 758.801 350.581 l 1
 866 134 l 1
EndSplineSet
EndChar

StartChar: agrave
Encoding: 224 224 146
Width: 1000
VWidth: 0
Flags: HW
LayerCount: 2
Back
Fore
SplineSet
0 500 m 4
 0 224 224 0 500 0 c 4
 776 0 1000 224 1000 500 c 4
 1000 776 776 1000 500 1000 c 4
 224 1000 0 776 0 500 c 4
0 1000 m 5
 1000 1000 l 5
 1000 0 l 5
 0 0 l 5
 0 1000 l 5
EndSplineSet
EndChar

StartChar: aacute
Encoding: 225 225 147
Width: 1000
VWidth: 0
Flags: HW
LayerCount: 2
Back
Fore
SplineSet
100 500 m 4
 100 279.200195312 279.200195312 100 500 100 c 4
 720.799804688 100 900 279.200195312 900 500 c 4
 900 720.799804688 720.799804688 900 500 900 c 4
 279.200195312 900 100 720.799804688 100 500 c 4
0 1000 m 5
 1000 1000 l 5
 1000 0 l 5
 0 0 l 5
 0 1000 l 5
EndSplineSet
EndChar

StartChar: acircumflex
Encoding: 226 226 148
Width: 1000
VWidth: 0
Flags: HW
LayerCount: 2
Back
Fore
SplineSet
180 500 m 4
 180 323.360351562 323.360351562 180 500 180 c 4
 676.639648438 180 820 323.360351562 820 500 c 4
 820 676.639648438 676.639648438 820 500 820 c 4
 323.360351562 820 180 676.639648438 180 500 c 4
0 1000 m 1
 1000 1000 l 1
 1000 0 l 1
 0 0 l 1
 0 1000 l 1
EndSplineSet
EndChar

StartChar: atilde
Encoding: 227 227 149
Width: 1000
VWidth: 0
Flags: HW
LayerCount: 2
Back
Fore
SplineSet
244 500 m 4
 244 358.688476562 358.688476562 244 500 244 c 4
 641.311523438 244 756 358.688476562 756 500 c 4
 756 641.311523438 641.311523438 756 500 756 c 4
 358.688476562 756 244 641.311523438 244 500 c 4
0 1000 m 1
 1000 1000 l 1
 1000 0 l 1
 0 0 l 1
 0 1000 l 1
EndSplineSet
EndChar

StartChar: adieresis
Encoding: 228 228 150
Width: 1000
VWidth: 0
Flags: HW
LayerCount: 2
Back
Fore
SplineSet
295.200195312 500 m 0
 295.200195312 386.951171875 386.951171875 295.200195312 500 295.200195312 c 0
 613.048828125 295.200195312 704.799804688 386.951171875 704.799804688 500 c 0
 704.799804688 613.048828125 613.048828125 704.799804688 500 704.799804688 c 0
 386.951171875 704.799804688 295.200195312 613.048828125 295.200195312 500 c 0
0 1000 m 5
 1000 1000 l 5
 1000 0 l 5
 0 0 l 5
 0 1000 l 5
EndSplineSet
EndChar

StartChar: aring
Encoding: 229 229 151
Width: 1000
VWidth: 0
Flags: HW
LayerCount: 2
Back
Fore
SplineSet
336.16015625 500 m 4
 336.16015625 409.560546875 409.560546875 336.16015625 500 336.16015625 c 4
 590.439453125 336.16015625 663.83984375 409.560546875 663.83984375 500 c 4
 663.83984375 590.439453125 590.439453125 663.83984375 500 663.83984375 c 4
 409.560546875 663.83984375 336.16015625 590.439453125 336.16015625 500 c 4
0 1000 m 1
 1000 1000 l 1
 1000 0 l 1
 0 0 l 1
 0 1000 l 1
EndSplineSet
EndChar

StartChar: ae
Encoding: 230 230 152
Width: 1000
VWidth: 0
Flags: HW
LayerCount: 2
Back
Fore
SplineSet
368.927734375 500 m 4
 368.927734375 427.6484375 427.6484375 368.927734375 500 368.927734375 c 4
 572.3515625 368.927734375 631.072265625 427.6484375 631.072265625 500 c 4
 631.072265625 572.3515625 572.3515625 631.072265625 500 631.072265625 c 4
 427.6484375 631.072265625 368.927734375 572.3515625 368.927734375 500 c 4
0 1000 m 1
 1000 1000 l 1
 1000 0 l 1
 0 0 l 1
 0 1000 l 1
EndSplineSet
EndChar

StartChar: ccedilla
Encoding: 231 231 153
Width: 1000
VWidth: 0
Flags: HW
LayerCount: 2
Back
Fore
SplineSet
395.142578125 500 m 4
 395.142578125 442.119140625 442.119140625 395.142578125 500 395.142578125 c 4
 557.880859375 395.142578125 604.857421875 442.119140625 604.857421875 500 c 4
 604.857421875 557.880859375 557.880859375 604.857421875 500 604.857421875 c 4
 442.119140625 604.857421875 395.142578125 557.880859375 395.142578125 500 c 4
0 1000 m 1
 1000 1000 l 1
 1000 0 l 1
 0 0 l 1
 0 1000 l 1
EndSplineSet
EndChar

StartChar: egrave
Encoding: 232 232 154
Width: 1000
VWidth: 0
Flags: HW
LayerCount: 2
Back
Fore
SplineSet
416.114257812 500 m 4
 416.114257812 453.6953125 453.6953125 416.114257812 500 416.114257812 c 4
 546.3046875 416.114257812 583.885742188 453.6953125 583.885742188 500 c 4
 583.885742188 546.3046875 546.3046875 583.885742188 500 583.885742188 c 4
 453.6953125 583.885742188 416.114257812 546.3046875 416.114257812 500 c 4
0 1000 m 1
 1000 1000 l 1
 1000 0 l 1
 0 0 l 1
 0 1000 l 1
EndSplineSet
EndChar

StartChar: eacute
Encoding: 233 233 155
Width: 1000
VWidth: 0
Flags: HW
LayerCount: 2
Back
Fore
SplineSet
0 0 m 1
 276 0 500 224 500 500 c 0
 500 776 276 1000 0 1000 c 1
 1000 1000 l 1
 1000 0 l 1
 0 0 l 1
EndSplineSet
EndChar

StartChar: ecircumflex
Encoding: 234 234 156
Width: 1000
VWidth: 0
Flags: HW
LayerCount: 2
Back
Fore
SplineSet
0 1000 m 1
 1000 1000 l 1
 1000 0 l 1
 0 0 l 1
 0 100 l 1
 220.799804688 100 400 279.200195312 400 500 c 0
 400 720.799804688 220.799804688 900 0 900 c 1
 0 1000 l 1
EndSplineSet
EndChar

StartChar: edieresis
Encoding: 235 235 157
Width: 1000
VWidth: 0
Flags: HW
LayerCount: 2
Back
Fore
SplineSet
0 1000 m 1
 1000 1000 l 1
 1000 0 l 1
 0 0 l 1
 0 180 l 1
 176.639648438 180 320 323.360351562 320 500 c 0
 320 676.639648438 176.639648438 820 0 820 c 1
 0 1000 l 1
EndSplineSet
EndChar

StartChar: igrave
Encoding: 236 236 158
Width: 1000
VWidth: 0
Flags: HW
LayerCount: 2
Back
Fore
SplineSet
0 1000 m 1
 1000 1000 l 1
 1000 0 l 1
 0 0 l 1
 0 244 l 1
 141.311523438 244 256 358.688476562 256 500 c 0
 256 641.311523438 141.311523438 756 0 756 c 1
 0 1000 l 1
EndSplineSet
EndChar

StartChar: iacute
Encoding: 237 237 159
Width: 1000
VWidth: 0
Flags: HW
LayerCount: 2
Back
Fore
SplineSet
0 1000 m 1
 1000 1000 l 1
 1000 0 l 1
 0 0 l 1
 0 295.200195312 l 1
 113.048828125 295.200195312 204.799804688 386.951171875 204.799804688 500 c 0
 204.799804688 613.048828125 113.048828125 704.799804688 0 704.799804688 c 1
 0 1000 l 1
EndSplineSet
EndChar

StartChar: icircumflex
Encoding: 238 238 160
Width: 1000
VWidth: 0
Flags: HW
LayerCount: 2
Back
Fore
SplineSet
0 1000 m 1
 1000 1000 l 1
 1000 0 l 1
 0 0 l 1
 0 336.16015625 l 1
 90.439453125 336.16015625 163.83984375 409.560546875 163.83984375 500 c 0
 163.83984375 590.439453125 90.439453125 663.83984375 0 663.83984375 c 1
 0 1000 l 1
EndSplineSet
EndChar

StartChar: idieresis
Encoding: 239 239 161
Width: 1000
VWidth: 0
Flags: HW
LayerCount: 2
Back
Fore
SplineSet
0 1000 m 1
 1000 1000 l 1
 1000 0 l 1
 0 0 l 1
 0 368.927734375 l 1
 72.3515625 368.927734375 131.072265625 427.6484375 131.072265625 500 c 0
 131.072265625 572.3515625 72.3515625 631.072265625 0 631.072265625 c 1
 0 1000 l 1
EndSplineSet
EndChar

StartChar: eth
Encoding: 240 240 162
Width: 1000
VWidth: 0
Flags: HW
LayerCount: 2
Back
Fore
SplineSet
0 1000 m 1
 1000 1000 l 1
 1000 0 l 1
 0 0 l 1
 0 395.142578125 l 1
 57.880859375 395.142578125 104.857421875 442.119140625 104.857421875 500 c 0
 104.857421875 557.880859375 57.880859375 604.857421875 0 604.857421875 c 1
 0 1000 l 1
EndSplineSet
EndChar

StartChar: ntilde
Encoding: 241 241 163
Width: 1000
VWidth: 0
Flags: HW
LayerCount: 2
Back
Fore
SplineSet
0 1000 m 1
 1000 1000 l 1
 1000 0 l 1
 0 0 l 1
 0 416.114257812 l 1
 46.3046875 416.114257812 83.8857421875 453.6953125 83.8857421875 500 c 0
 83.8857421875 546.3046875 46.3046875 583.885742188 0 583.885742188 c 1
 0 1000 l 1
EndSplineSet
EndChar

StartChar: Aogonek
Encoding: 260 260 164
Width: 1000
VWidth: 0
Flags: HW
LayerCount: 2
Back
Fore
SplineSet
500 822.48046875 m 1
 99.48046875 128.759765625 l 1
 500 152.759765625 l 1
 900.51953125 128.759765625 l 1
 500 822.48046875 l 1
500 934.1 m 1
 1000.65 66.9502 l 1
 500 96.9502 l 1
 -0.649414 66.9502 l 1
 500 934.1 l 1
EndSplineSet
EndChar

StartChar: aogonek
Encoding: 261 261 165
Width: 1000
VWidth: 0
Flags: HW
LayerCount: 2
Back
Fore
SplineSet
500 826.48046875 m 1
 99.48046875 132.759765625 l 1
 500 180.759765625 l 1
 900.51953125 132.759765625 l 1
 500 826.48046875 l 1
500 934.1 m 1
 1000.65 66.9502 l 1
 500 126.95 l 1
 -0.649414 66.9502 l 1
 500 934.1 l 1
EndSplineSet
EndChar

StartChar: Cacute
Encoding: 262 262 166
Width: 1000
VWidth: 0
Flags: HW
LayerCount: 2
Back
Fore
SplineSet
500 830.473632812 m 1
 99.48046875 136.75390625 l 1
 500 208.75390625 l 1
 900.51953125 136.75390625 l 1
 500 830.473632812 l 1
500 934.1 m 1
 1000.65 66.9502 l 1
 500 156.95 l 1
 -0.649414 66.9502 l 1
 500 934.1 l 1
EndSplineSet
EndChar

StartChar: cacute
Encoding: 263 263 167
Width: 1000
VWidth: 0
Flags: HW
LayerCount: 2
Back
Fore
SplineSet
500 834.473632812 m 1
 99.48046875 140.75390625 l 1
 500 236.75390625 l 1
 900.51953125 140.75390625 l 1
 500 834.473632812 l 1
500 934.1 m 1
 1000.65 66.9502 l 1
 500 186.95 l 1
 -0.649414 66.9502 l 1
 500 934.1 l 1
EndSplineSet
EndChar

StartChar: Ccircumflex
Encoding: 264 264 168
Width: 1000
VWidth: 0
Flags: HW
LayerCount: 2
Back
Fore
SplineSet
500 838.473632812 m 1
 99.48046875 144.75390625 l 1
 500 264.75390625 l 1
 900.51953125 144.75390625 l 1
 500 838.473632812 l 1
500 934.1 m 1
 1000.65 66.9502 l 1
 500 216.95 l 1
 -0.649414 66.9502 l 1
 500 934.1 l 1
EndSplineSet
EndChar

StartChar: ccircumflex
Encoding: 265 265 169
Width: 1000
VWidth: 0
Flags: HW
LayerCount: 2
Back
Fore
SplineSet
500 846.473632812 m 1
 99.48046875 152.75390625 l 1
 500 296.75390625 l 1
 900.51953125 152.75390625 l 1
 500 846.473632812 l 1
500 934.1 m 1
 1000.65 66.9502 l 1
 500 246.95 l 1
 -0.649414 66.9502 l 1
 500 934.1 l 1
EndSplineSet
EndChar

StartChar: Cdotaccent
Encoding: 266 266 170
Width: 1000
VWidth: 0
Flags: HW
LayerCount: 2
Back
Fore
SplineSet
500 846.473632812 m 1
 99.48046875 152.75390625 l 1
 500 320.75390625 l 1
 900.51953125 152.75390625 l 1
 500 846.473632812 l 1
500 934.1 m 1
 1000.65 66.9502 l 1
 500 276.95 l 1
 -0.649414 66.9502 l 1
 500 934.1 l 1
EndSplineSet
EndChar

StartChar: cdotaccent
Encoding: 267 267 171
Width: 1000
VWidth: 0
Flags: HW
LayerCount: 2
Back
Fore
SplineSet
500 850.473632812 m 1
 99.48046875 156.75390625 l 1
 500 348.75390625 l 1
 900.51953125 156.75390625 l 1
 500 850.473632812 l 1
500 934.1 m 1
 1000.65 66.9502 l 1
 500 306.95 l 1
 -0.649414 66.9502 l 1
 500 934.1 l 1
EndSplineSet
EndChar

StartChar: Ccaron
Encoding: 268 268 172
Width: 1000
VWidth: 0
Flags: HW
LayerCount: 2
Back
Fore
SplineSet
500 854.473632812 m 1
 99.48046875 160.75390625 l 1
 500 376.75390625 l 1
 900.51953125 160.75390625 l 1
 500 854.473632812 l 1
500 934.1 m 1
 1000.65 66.9502 l 1
 500 336.95 l 1
 -0.649414 66.9502 l 1
 500 934.1 l 1
EndSplineSet
EndChar

StartChar: ccaron
Encoding: 269 269 173
Width: 1000
VWidth: 0
Flags: HW
LayerCount: 2
Back
Fore
SplineSet
500 858.473632812 m 1
 99.48046875 164.75390625 l 1
 500 404.75390625 l 1
 900.51953125 164.75390625 l 1
 500 858.473632812 l 1
500 934.1 m 1
 1000.65 66.9502 l 1
 500 366.95 l 1
 -0.649414 66.9502 l 1
 500 934.1 l 1
EndSplineSet
EndChar

StartChar: Dcaron
Encoding: 270 270 174
Width: 1000
VWidth: 0
Flags: HW
LayerCount: 2
Back
Fore
SplineSet
500 733.184570312 m 1
 179.583984375 178.208007812 l 1
 500 197.408203125 l 1
 820.416015625 178.208007812 l 1
 500 733.184570312 l 1
500 934.1 m 1
 1000.65 66.9502 l 1
 500 96.9502 l 1
 -0.649414 66.9502 l 1
 500 934.1 l 1
EndSplineSet
EndChar

StartChar: dcaron
Encoding: 271 271 175
Width: 1000
VWidth: 0
Flags: HW
LayerCount: 2
Back
Fore
SplineSet
500 740.384765625 m 1
 179.583984375 185.408203125 l 1
 500 223.807617188 l 1
 820.416015625 185.408203125 l 1
 500 740.384765625 l 1
500 934.1 m 1
 1000.65 66.9502 l 1
 500 126.95 l 1
 -0.649414 66.9502 l 1
 500 934.1 l 1
EndSplineSet
EndChar

StartChar: Dcroat
Encoding: 272 272 176
Width: 1000
VWidth: 0
Flags: HW
LayerCount: 2
Back
Fore
SplineSet
500 747.573242188 m 1
 179.583984375 192.596679688 l 1
 500 250.197265625 l 1
 820.416015625 192.596679688 l 1
 500 747.573242188 l 1
500 934.1 m 1
 1000.65 66.9502 l 1
 500 156.95 l 1
 -0.649414 66.9502 l 1
 500 934.1 l 1
EndSplineSet
EndChar

StartChar: dcroat
Encoding: 273 273 177
Width: 1000
VWidth: 0
Flags: HW
LayerCount: 2
Back
Fore
SplineSet
500 754.772460938 m 1
 179.583984375 199.796875 l 1
 500 276.596679688 l 1
 820.416015625 199.796875 l 1
 500 754.772460938 l 1
500 934.1 m 1
 1000.65 66.9502 l 1
 500 186.95 l 1
 -0.649414 66.9502 l 1
 500 934.1 l 1
EndSplineSet
EndChar

StartChar: Emacron
Encoding: 274 274 178
Width: 1000
VWidth: 0
Flags: HW
LayerCount: 2
Back
Fore
SplineSet
500 761.97265625 m 1
 179.583984375 206.997070312 l 1
 500 302.997070312 l 1
 820.416015625 206.997070312 l 1
 500 761.97265625 l 1
500 934.1 m 1
 1000.65 66.9502 l 1
 500 216.95 l 1
 -0.649414 66.9502 l 1
 500 934.1 l 1
EndSplineSet
EndChar

StartChar: emacron
Encoding: 275 275 179
Width: 1000
VWidth: 0
Flags: HW
LayerCount: 2
Back
Fore
SplineSet
500 776.373046875 m 1
 179.583984375 221.397460938 l 1
 500 336.596679688 l 1
 820.416015625 221.397460938 l 1
 500 776.373046875 l 1
500 934.1 m 1
 1000.65 66.9502 l 1
 500 246.95 l 1
 -0.649414 66.9502 l 1
 500 934.1 l 1
EndSplineSet
EndChar

StartChar: Ebreve
Encoding: 276 276 180
Width: 1000
VWidth: 0
Flags: HW
LayerCount: 2
Back
Fore
SplineSet
500 776.373046875 m 1
 179.583984375 221.397460938 l 1
 500 355.796875 l 1
 820.416015625 221.397460938 l 1
 500 776.373046875 l 1
500 934.1 m 1
 1000.65 66.9502 l 1
 500 276.95 l 1
 -0.649414 66.9502 l 1
 500 934.1 l 1
EndSplineSet
EndChar

StartChar: ebreve
Encoding: 277 277 181
Width: 1000
VWidth: 0
Flags: HW
LayerCount: 2
Back
Fore
SplineSet
500 783.573242188 m 1
 179.583984375 228.596679688 l 1
 500 382.197265625 l 1
 820.416015625 228.596679688 l 1
 500 783.573242188 l 1
500 934.1 m 1
 1000.65 66.9502 l 1
 500 306.95 l 1
 -0.649414 66.9502 l 1
 500 934.1 l 1
EndSplineSet
EndChar

StartChar: Edotaccent
Encoding: 278 278 182
Width: 1000
VWidth: 0
Flags: HW
LayerCount: 2
Back
Fore
SplineSet
500 790.772460938 m 1
 179.583984375 235.796875 l 1
 500 408.596679688 l 1
 820.416015625 235.796875 l 1
 500 790.772460938 l 1
500 934.1 m 1
 1000.65 66.9502 l 1
 500 336.95 l 1
 -0.649414 66.9502 l 1
 500 934.1 l 1
EndSplineSet
EndChar

StartChar: edotaccent
Encoding: 279 279 183
Width: 1000
VWidth: 0
Flags: HW
LayerCount: 2
Back
Fore
SplineSet
500 797.97265625 m 1
 179.583984375 242.997070312 l 1
 500 434.997070312 l 1
 820.416015625 242.997070312 l 1
 500 797.97265625 l 1
500 934.1 m 1
 1000.65 66.9502 l 1
 500 366.95 l 1
 -0.649414 66.9502 l 1
 500 934.1 l 1
EndSplineSet
EndChar

StartChar: Eogonek
Encoding: 280 280 184
Width: 1000
VWidth: 0
Flags: HW
LayerCount: 2
Back
Fore
SplineSet
500 661.748046875 m 1
 243.666992188 217.766601562 l 1
 500 233.126953125 l 1
 756.333007812 217.766601562 l 1
 500 661.748046875 l 1
500 934.1 m 1
 1000.65 66.9502 l 1
 500 96.9502 l 1
 -0.649414 66.9502 l 1
 500 934.1 l 1
EndSplineSet
EndChar

StartChar: eogonek
Encoding: 281 281 185
Width: 1000
VWidth: 0
Flags: HW
LayerCount: 2
Back
Fore
SplineSet
500 671.5078125 m 1
 243.666992188 227.526367188 l 1
 500 258.24609375 l 1
 756.333007812 227.526367188 l 1
 500 671.5078125 l 1
500 934.1 m 1
 1000.65 66.9502 l 1
 500 126.95 l 1
 -0.649414 66.9502 l 1
 500 934.1 l 1
EndSplineSet
EndChar

StartChar: Ecaron
Encoding: 282 282 186
Width: 1000
VWidth: 0
Flags: HW
LayerCount: 2
Back
Fore
SplineSet
500 681.252929688 m 1
 243.666992188 237.271484375 l 1
 500 283.3515625 l 1
 756.333007812 237.271484375 l 1
 500 681.252929688 l 1
500 934.1 m 1
 1000.65 66.9502 l 1
 500 156.95 l 1
 -0.649414 66.9502 l 1
 500 934.1 l 1
EndSplineSet
EndChar

StartChar: ecaron
Encoding: 283 283 187
Width: 1000
VWidth: 0
Flags: HW
LayerCount: 2
Back
Fore
SplineSet
500 691.01171875 m 1
 243.666992188 247.03125 l 1
 500 308.471679688 l 1
 756.333007812 247.03125 l 1
 500 691.01171875 l 1
500 934.1 m 1
 1000.65 66.9502 l 1
 500 186.95 l 1
 -0.649414 66.9502 l 1
 500 934.1 l 1
EndSplineSet
EndChar

StartChar: Gcircumflex
Encoding: 284 284 188
Width: 1000
VWidth: 0
Flags: HW
LayerCount: 2
Back
Fore
SplineSet
500 700.772460938 m 1
 243.666992188 256.791992188 l 1
 500 333.591796875 l 1
 756.333007812 256.791992188 l 1
 500 700.772460938 l 1
500 934.1 m 1
 1000.65 66.9502 l 1
 500 216.95 l 1
 -0.649414 66.9502 l 1
 500 934.1 l 1
EndSplineSet
EndChar

StartChar: gcircumflex
Encoding: 285 285 189
Width: 1000
VWidth: 0
Flags: HW
LayerCount: 2
Back
Fore
SplineSet
500 720.291992188 m 1
 243.666992188 276.311523438 l 1
 500 368.471679688 l 1
 756.333007812 276.311523438 l 1
 500 720.291992188 l 1
500 934.1 m 1
 1000.65 66.9502 l 1
 500 246.95 l 1
 -0.649414 66.9502 l 1
 500 934.1 l 1
EndSplineSet
EndChar

StartChar: Gbreve
Encoding: 286 286 190
Width: 1000
VWidth: 0
Flags: HW
LayerCount: 2
Back
Fore
SplineSet
500 720.291992188 m 1
 243.666992188 276.311523438 l 1
 500 383.831054688 l 1
 756.333007812 276.311523438 l 1
 500 720.291992188 l 1
500 934.1 m 1
 1000.65 66.9502 l 1
 500 276.95 l 1
 -0.649414 66.9502 l 1
 500 934.1 l 1
EndSplineSet
EndChar

StartChar: gbreve
Encoding: 287 287 191
Width: 1000
VWidth: 0
Flags: HW
LayerCount: 2
Back
Fore
SplineSet
500 730.052734375 m 1
 243.666992188 286.071289062 l 1
 500 408.952148438 l 1
 756.333007812 286.071289062 l 1
 500 730.052734375 l 1
500 934.1 m 1
 1000.65 66.9502 l 1
 500 306.95 l 1
 -0.649414 66.9502 l 1
 500 934.1 l 1
EndSplineSet
EndChar

StartChar: Gdotaccent
Encoding: 288 288 192
Width: 1000
VWidth: 0
Flags: HW
LayerCount: 2
Back
Fore
SplineSet
500 739.811523438 m 1
 243.666992188 295.831054688 l 1
 500 434.071289062 l 1
 756.333007812 295.831054688 l 1
 500 739.811523438 l 1
500 934.1 m 1
 1000.65 66.9502 l 1
 500 336.95 l 1
 -0.649414 66.9502 l 1
 500 934.1 l 1
EndSplineSet
EndChar

StartChar: gdotaccent
Encoding: 289 289 193
Width: 1000
VWidth: 0
Flags: HW
LayerCount: 2
Back
Fore
SplineSet
500 749.572265625 m 1
 243.666992188 305.591796875 l 1
 500 459.19140625 l 1
 756.333007812 305.591796875 l 1
 500 749.572265625 l 1
500 934.1 m 1
 1000.65 66.9502 l 1
 500 366.95 l 1
 -0.649414 66.9502 l 1
 500 934.1 l 1
EndSplineSet
EndChar

StartChar: Gcommaaccent
Encoding: 290 290 194
Width: 1000
VWidth: 0
Flags: HW
LayerCount: 2
Back
Fore
SplineSet
500 604.598632812 m 1
 294.93359375 249.413085938 l 1
 500 261.701171875 l 1
 705.06640625 249.413085938 l 1
 500 604.598632812 l 1
500 934.1 m 1
 1000.65 66.9502 l 1
 500 96.9502 l 1
 -0.649414 66.9502 l 1
 500 934.1 l 1
EndSplineSet
EndChar

StartChar: gcommaaccent
Encoding: 291 291 195
Width: 1000
VWidth: 0
Flags: HW
LayerCount: 2
Back
Fore
SplineSet
500 616.40625 m 1
 294.93359375 261.220703125 l 1
 500 285.796875 l 1
 705.06640625 261.220703125 l 1
 500 616.40625 l 1
500 934.1 m 1
 1000.65 66.9502 l 1
 500 126.95 l 1
 -0.649414 66.9502 l 1
 500 934.1 l 1
EndSplineSet
EndChar

StartChar: Hcircumflex
Encoding: 292 292 196
Width: 1000
VWidth: 0
Flags: HW
LayerCount: 2
Back
Fore
SplineSet
500 628.196289062 m 1
 294.93359375 273.010742188 l 1
 500 309.875 l 1
 705.06640625 273.010742188 l 1
 500 628.196289062 l 1
500 934.1 m 1
 1000.65 66.9502 l 1
 500 156.95 l 1
 -0.649414 66.9502 l 1
 500 934.1 l 1
EndSplineSet
EndChar

StartChar: hcircumflex
Encoding: 293 293 197
Width: 1000
VWidth: 0
Flags: HW
LayerCount: 2
Back
Fore
SplineSet
500 640.002929688 m 1
 294.93359375 284.819335938 l 1
 500 333.971679688 l 1
 705.06640625 284.819335938 l 1
 500 640.002929688 l 1
500 934.1 m 1
 1000.65 66.9502 l 1
 500 186.95 l 1
 -0.649414 66.9502 l 1
 500 934.1 l 1
EndSplineSet
EndChar

StartChar: Hbar
Encoding: 294 294 198
Width: 1000
VWidth: 0
Flags: HW
LayerCount: 2
Back
Fore
SplineSet
500 651.811523438 m 1
 294.93359375 296.627929688 l 1
 500 358.067382812 l 1
 705.06640625 296.627929688 l 1
 500 651.811523438 l 1
500 934.1 m 1
 1000.65 66.9502 l 1
 500 216.95 l 1
 -0.649414 66.9502 l 1
 500 934.1 l 1
EndSplineSet
EndChar

StartChar: hbar
Encoding: 295 295 199
Width: 1000
VWidth: 0
Flags: HW
LayerCount: 2
Back
Fore
SplineSet
500 675.427734375 m 1
 294.93359375 320.243164062 l 1
 500 393.971679688 l 1
 705.06640625 320.243164062 l 1
 500 675.427734375 l 1
500 934.1 m 1
 1000.65 66.9502 l 1
 500 246.95 l 1
 -0.649414 66.9502 l 1
 500 934.1 l 1
EndSplineSet
EndChar

StartChar: Itilde
Encoding: 296 296 200
Width: 1000
VWidth: 0
Flags: HW
LayerCount: 2
Back
Fore
SplineSet
500 675.427734375 m 1
 294.93359375 320.243164062 l 1
 500 406.258789062 l 1
 705.06640625 320.243164062 l 1
 500 675.427734375 l 1
500 934.1 m 1
 1000.65 66.9502 l 1
 500 276.95 l 1
 -0.649414 66.9502 l 1
 500 934.1 l 1
EndSplineSet
EndChar

StartChar: itilde
Encoding: 297 297 201
Width: 1000
VWidth: 0
Flags: HW
LayerCount: 2
Back
Fore
SplineSet
500 687.236328125 m 1
 294.93359375 332.05078125 l 1
 500 430.35546875 l 1
 705.06640625 332.05078125 l 1
 500 687.236328125 l 1
500 934.1 m 1
 1000.65 66.9502 l 1
 500 306.95 l 1
 -0.649414 66.9502 l 1
 500 934.1 l 1
EndSplineSet
EndChar

StartChar: Imacron
Encoding: 298 298 202
Width: 1000
VWidth: 0
Flags: HW
LayerCount: 2
Back
Fore
SplineSet
500 699.04296875 m 1
 294.93359375 343.858398438 l 1
 500 454.451171875 l 1
 705.06640625 343.858398438 l 1
 500 699.04296875 l 1
500 934.1 m 1
 1000.65 66.9502 l 1
 500 336.95 l 1
 -0.649414 66.9502 l 1
 500 934.1 l 1
EndSplineSet
EndChar

StartChar: imacron
Encoding: 299 299 203
Width: 1000
VWidth: 0
Flags: HW
LayerCount: 2
Back
Fore
SplineSet
500 710.8515625 m 1
 294.93359375 355.666992188 l 1
 500 478.546875 l 1
 705.06640625 355.666992188 l 1
 500 710.8515625 l 1
500 934.1 m 1
 1000.65 66.9502 l 1
 500 366.95 l 1
 -0.649414 66.9502 l 1
 500 934.1 l 1
EndSplineSet
EndChar

StartChar: Ibreve
Encoding: 300 300 204
Width: 1000
VWidth: 0
Flags: HW
LayerCount: 2
Back
Fore
SplineSet
500 558.87890625 m 1
 335.947265625 274.73046875 l 1
 500 284.560546875 l 1
 664.052734375 274.73046875 l 1
 500 558.87890625 l 1
500 934.1 m 1
 1000.65 66.9502 l 1
 500 96.9502 l 1
 -0.649414 66.9502 l 1
 500 934.1 l 1
EndSplineSet
EndChar

StartChar: ibreve
Encoding: 301 301 205
Width: 1000
VWidth: 0
Flags: HW
LayerCount: 2
Back
Fore
SplineSet
500 572.325195312 m 1
 335.947265625 288.176757812 l 1
 500 307.837890625 l 1
 664.052734375 288.176757812 l 1
 500 572.325195312 l 1
500 934.1 m 1
 1000.65 66.9502 l 1
 500 126.95 l 1
 -0.649414 66.9502 l 1
 500 934.1 l 1
EndSplineSet
EndChar

StartChar: Iogonek
Encoding: 302 302 206
Width: 1000
VWidth: 0
Flags: HW
LayerCount: 2
Back
Fore
SplineSet
500 585.750976562 m 1
 335.947265625 301.602539062 l 1
 500 331.09375 l 1
 664.052734375 301.602539062 l 1
 500 585.750976562 l 1
500 934.1 m 1
 1000.65 66.9502 l 1
 500 156.95 l 1
 -0.649414 66.9502 l 1
 500 934.1 l 1
EndSplineSet
EndChar

StartChar: iogonek
Encoding: 303 303 207
Width: 1000
VWidth: 0
Flags: HW
LayerCount: 2
Back
Fore
SplineSet
500 599.196289062 m 1
 335.947265625 315.049804688 l 1
 500 354.37109375 l 1
 664.052734375 315.049804688 l 1
 500 599.196289062 l 1
500 934.1 m 1
 1000.65 66.9502 l 1
 500 186.95 l 1
 -0.649414 66.9502 l 1
 500 934.1 l 1
EndSplineSet
EndChar

StartChar: Idotaccent
Encoding: 304 304 208
Width: 1000
VWidth: 0
Flags: HW
LayerCount: 2
Back
Fore
SplineSet
500 612.643554688 m 1
 335.947265625 328.49609375 l 1
 500 377.647460938 l 1
 664.052734375 328.49609375 l 1
 500 612.643554688 l 1
500 934.1 m 1
 1000.65 66.9502 l 1
 500 216.95 l 1
 -0.649414 66.9502 l 1
 500 934.1 l 1
EndSplineSet
EndChar

StartChar: dotlessi
Encoding: 305 305 209
Width: 1000
VWidth: 0
Flags: HW
LayerCount: 2
Back
Fore
SplineSet
500 639.536132812 m 1
 335.947265625 355.388671875 l 1
 500 414.37109375 l 1
 664.052734375 355.388671875 l 1
 500 639.536132812 l 1
500 934.1 m 1
 1000.65 66.9502 l 1
 500 246.95 l 1
 -0.649414 66.9502 l 1
 500 934.1 l 1
EndSplineSet
EndChar

StartChar: IJ
Encoding: 306 306 210
Width: 1000
VWidth: 0
Flags: HW
LayerCount: 2
Back
Fore
SplineSet
500 639.536132812 m 1
 335.947265625 355.388671875 l 1
 500 424.201171875 l 1
 664.052734375 355.388671875 l 1
 500 639.536132812 l 1
500 934.1 m 1
 1000.65 66.9502 l 1
 500 276.95 l 1
 -0.649414 66.9502 l 1
 500 934.1 l 1
EndSplineSet
EndChar

StartChar: ij
Encoding: 307 307 211
Width: 1000
VWidth: 0
Flags: HW
LayerCount: 2
Back
Fore
SplineSet
500 652.983398438 m 1
 335.947265625 368.834960938 l 1
 500 447.478515625 l 1
 664.052734375 368.834960938 l 1
 500 652.983398438 l 1
500 934.1 m 1
 1000.65 66.9502 l 1
 500 306.95 l 1
 -0.649414 66.9502 l 1
 500 934.1 l 1
EndSplineSet
EndChar

StartChar: Jcircumflex
Encoding: 308 308 212
Width: 1000
VWidth: 0
Flags: HW
LayerCount: 2
Back
Fore
SplineSet
500 666.428710938 m 1
 335.947265625 382.280273438 l 1
 500 470.754882812 l 1
 664.052734375 382.280273438 l 1
 500 666.428710938 l 1
500 934.1 m 1
 1000.65 66.9502 l 1
 500 336.95 l 1
 -0.649414 66.9502 l 1
 500 934.1 l 1
EndSplineSet
EndChar

StartChar: jcircumflex
Encoding: 309 309 213
Width: 1000
VWidth: 0
Flags: HW
LayerCount: 2
Back
Fore
SplineSet
500 679.875 m 1
 335.947265625 395.727539062 l 1
 500 494.03125 l 1
 664.052734375 395.727539062 l 1
 500 679.875 l 1
500 934.1 m 1
 1000.65 66.9502 l 1
 500 366.95 l 5
 -0.649414 66.9502 l 1
 500 934.1 l 1
EndSplineSet
EndChar

StartChar: Kcommaaccent
Encoding: 310 310 214
Width: 1000
VWidth: 0
Flags: HW
LayerCount: 2
Back
Fore
SplineSet
500 522.302734375 m 1
 368.7578125 294.984375 l 1
 500 302.848632812 l 1
 631.2421875 294.984375 l 1
 500 522.302734375 l 1
500 934.1 m 1
 1000.65 66.9502 l 1
 500 96.9502 l 1
 -0.649414 66.9502 l 1
 500 934.1 l 1
EndSplineSet
EndChar

StartChar: kcommaaccent
Encoding: 311 311 215
Width: 1000
VWidth: 0
Flags: HW
LayerCount: 2
Back
Fore
SplineSet
500 537.060546875 m 1
 368.7578125 309.741210938 l 1
 500 325.470703125 l 1
 631.2421875 309.741210938 l 1
 500 537.060546875 l 1
500 934.1 m 1
 1000.65 66.9502 l 1
 500 126.95 l 1
 -0.649414 66.9502 l 1
 500 934.1 l 1
EndSplineSet
EndChar

StartChar: kgreenlandic
Encoding: 312 312 216
Width: 1000
VWidth: 0
Flags: HW
LayerCount: 2
Back
Fore
SplineSet
500 551.794921875 m 1
 368.7578125 324.475585938 l 1
 500 348.069335938 l 1
 631.2421875 324.475585938 l 1
 500 551.794921875 l 1
500 934.1 m 1
 1000.65 66.9502 l 1
 500 156.95 l 1
 -0.649414 66.9502 l 1
 500 934.1 l 1
EndSplineSet
EndChar

StartChar: Lacute
Encoding: 313 313 217
Width: 1000
VWidth: 0
Flags: HW
LayerCount: 2
Back
Fore
SplineSet
500 566.55078125 m 1
 368.7578125 339.233398438 l 1
 500 370.690429688 l 1
 631.2421875 339.233398438 l 1
 500 566.55078125 l 1
500 934.1 m 1
 1000.65 66.9502 l 1
 500 186.95 l 1
 -0.649414 66.9502 l 1
 500 934.1 l 1
EndSplineSet
EndChar

StartChar: lacute
Encoding: 314 314 218
Width: 1000
VWidth: 0
Flags: HW
LayerCount: 2
Back
Fore
SplineSet
500 581.30859375 m 1
 368.7578125 353.991210938 l 1
 500 393.311523438 l 1
 631.2421875 353.991210938 l 1
 500 581.30859375 l 1
500 934.1 m 1
 1000.65 66.9502 l 1
 500 216.95 l 1
 -0.649414 66.9502 l 1
 500 934.1 l 1
EndSplineSet
EndChar

StartChar: Lcommaaccent
Encoding: 315 315 219
Width: 1000
VWidth: 0
Flags: HW
LayerCount: 2
Back
Fore
SplineSet
500 610.823242188 m 1
 368.7578125 383.504882812 l 1
 500 430.690429688 l 1
 631.2421875 383.504882812 l 1
 500 610.823242188 l 1
500 934.1 m 1
 1000.65 66.9502 l 1
 500 246.95 l 1
 -0.649414 66.9502 l 1
 500 934.1 l 1
EndSplineSet
EndChar

StartChar: lcommaaccent
Encoding: 316 316 220
Width: 1000
VWidth: 0
Flags: HW
LayerCount: 2
Back
Fore
SplineSet
500 610.823242188 m 1
 368.7578125 383.504882812 l 1
 500 438.5546875 l 1
 631.2421875 383.504882812 l 1
 500 610.823242188 l 1
500 934.1 m 1
 1000.65 66.9502 l 1
 500 276.95 l 1
 -0.649414 66.9502 l 1
 500 934.1 l 1
EndSplineSet
EndChar

StartChar: Lcaron
Encoding: 317 317 221
Width: 1000
VWidth: 0
Flags: HW
LayerCount: 2
Back
Fore
SplineSet
500 625.581054688 m 1
 368.7578125 398.26171875 l 1
 500 461.176757812 l 1
 631.2421875 398.26171875 l 1
 500 625.581054688 l 1
500 934.1 m 1
 1000.65 66.9502 l 1
 500 306.95 l 1
 -0.649414 66.9502 l 1
 500 934.1 l 1
EndSplineSet
EndChar

StartChar: lcaron
Encoding: 318 318 222
Width: 1000
VWidth: 0
Flags: HW
LayerCount: 2
Back
Fore
SplineSet
500 640.336914062 m 1
 368.7578125 413.018554688 l 1
 500 483.797851562 l 1
 631.2421875 413.018554688 l 1
 500 640.336914062 l 1
500 934.1 m 1
 1000.65 66.9502 l 1
 500 336.95 l 1
 -0.649414 66.9502 l 1
 500 934.1 l 1
EndSplineSet
EndChar

StartChar: Ldot
Encoding: 319 319 223
Width: 1000
VWidth: 0
Flags: HW
LayerCount: 2
Back
Fore
SplineSet
500 655.09375 m 1
 368.7578125 427.776367188 l 1
 500 506.418945312 l 1
 631.2421875 427.776367188 l 1
 500 655.09375 l 1
500 934.1 m 1
 1000.65 66.9502 l 1
 500 366.95 l 1
 -0.649414 66.9502 l 1
 500 934.1 l 1
EndSplineSet
EndChar

StartChar: ldot
Encoding: 320 320 224
Width: 1000
VWidth: 0
Flags: HW
LayerCount: 2
Back
Fore
SplineSet
500 493.041992188 m 1
 395.005859375 311.1875 l 1
 500 317.478515625 l 1
 604.994140625 311.1875 l 1
 500 493.041992188 l 1
500 934.1 m 1
 1000.65 66.9502 l 1
 500 96.9502 l 1
 -0.649414 66.9502 l 1
 500 934.1 l 1
EndSplineSet
EndChar

StartChar: Lslash
Encoding: 321 321 225
Width: 1000
VWidth: 0
Flags: HW
LayerCount: 2
Back
Fore
SplineSet
500 508.848632812 m 1
 395.005859375 326.993164062 l 1
 500 339.576171875 l 1
 604.994140625 326.993164062 l 1
 500 508.848632812 l 1
500 934.1 m 1
 1000.65 66.9502 l 1
 500 126.95 l 1
 -0.649414 66.9502 l 1
 500 934.1 l 1
EndSplineSet
EndChar

StartChar: lslash
Encoding: 322 322 226
Width: 1000
VWidth: 0
Flags: HW
LayerCount: 2
Back
Fore
SplineSet
500 524.629882812 m 1
 395.005859375 342.774414062 l 1
 500 361.649414062 l 1
 604.994140625 342.774414062 l 1
 500 524.629882812 l 1
500 934.1 m 1
 1000.65 66.9502 l 1
 500 156.95 l 1
 -0.649414 66.9502 l 1
 500 934.1 l 1
EndSplineSet
EndChar

StartChar: Nacute
Encoding: 323 323 227
Width: 1000
VWidth: 0
Flags: HW
LayerCount: 2
Back
Fore
SplineSet
500 540.434570312 m 1
 395.005859375 358.581054688 l 1
 500 383.74609375 l 1
 604.994140625 358.581054688 l 1
 500 540.434570312 l 1
500 934.1 m 1
 1000.65 66.9502 l 1
 500 186.95 l 1
 -0.649414 66.9502 l 1
 500 934.1 l 1
EndSplineSet
EndChar

StartChar: nacute
Encoding: 324 324 228
Width: 1000
VWidth: 0
Flags: HW
LayerCount: 2
Back
Fore
SplineSet
500 556.241210938 m 1
 395.005859375 374.38671875 l 1
 500 405.842773438 l 1
 604.994140625 374.38671875 l 1
 500 556.241210938 l 1
500 934.1 m 1
 1000.65 66.9502 l 1
 500 216.95 l 1
 -0.649414 66.9502 l 1
 500 934.1 l 1
EndSplineSet
EndChar

StartChar: Ncommaaccent
Encoding: 325 325 229
Width: 1000
VWidth: 0
Flags: HW
LayerCount: 2
Back
Fore
SplineSet
500 587.852539062 m 1
 395.005859375 405.998046875 l 1
 500 443.74609375 l 1
 604.994140625 405.998046875 l 1
 500 587.852539062 l 1
500 934.1 m 1
 1000.65 66.9502 l 1
 500 246.95 l 1
 -0.649414 66.9502 l 1
 500 934.1 l 1
EndSplineSet
EndChar

StartChar: ncommaaccent
Encoding: 326 326 230
Width: 1000
VWidth: 0
Flags: HW
LayerCount: 2
Back
Fore
SplineSet
500 587.852539062 m 1
 395.005859375 405.998046875 l 1
 500 450.038085938 l 1
 604.994140625 405.998046875 l 1
 500 587.852539062 l 1
500 934.1 m 1
 1000.65 66.9502 l 1
 500 276.95 l 1
 -0.649414 66.9502 l 1
 500 934.1 l 1
EndSplineSet
EndChar

StartChar: Ncaron
Encoding: 327 327 231
Width: 1000
VWidth: 0
Flags: HW
LayerCount: 2
Back
Fore
SplineSet
500 603.659179688 m 1
 395.005859375 421.803710938 l 1
 500 472.135742188 l 1
 604.994140625 421.803710938 l 1
 500 603.659179688 l 1
500 934.1 m 1
 1000.65 66.9502 l 1
 500 306.95 l 1
 -0.649414 66.9502 l 1
 500 934.1 l 1
EndSplineSet
EndChar

StartChar: ncaron
Encoding: 328 328 232
Width: 1000
VWidth: 0
Flags: HW
LayerCount: 2
Back
Fore
SplineSet
500 619.463867188 m 1
 395.005859375 437.608398438 l 1
 500 494.232421875 l 1
 604.994140625 437.608398438 l 1
 500 619.463867188 l 1
500 934.1 m 1
 1000.65 66.9502 l 1
 500 336.95 l 1
 -0.649414 66.9502 l 1
 500 934.1 l 1
EndSplineSet
EndChar

StartChar: napostrophe
Encoding: 329 329 233
Width: 1000
VWidth: 0
Flags: HW
LayerCount: 2
Back
Fore
SplineSet
500 635.268554688 m 1
 395.005859375 453.415039062 l 1
 500 516.329101562 l 1
 604.994140625 453.415039062 l 1
 500 635.268554688 l 1
500 934.1 m 1
 1000.65 66.9502 l 1
 500 366.95 l 1
 -0.649414 66.9502 l 1
 500 934.1 l 1
EndSplineSet
EndChar

StartChar: Eng
Encoding: 330 330 234
Width: 1000
VWidth: 0
Flags: HW
LayerCount: 2
Back
Fore
SplineSet
500 469.633789062 m 1
 416.004882812 324.150390625 l 1
 500 329.182617188 l 1
 583.995117188 324.150390625 l 1
 500 469.633789062 l 1
500 934.1 m 1
 1000.65 66.9502 l 1
 500 96.9502 l 1
 -0.649414 66.9502 l 1
 500 934.1 l 1
EndSplineSet
EndChar

StartChar: eng
Encoding: 331 331 235
Width: 1000
VWidth: 0
Flags: HW
LayerCount: 2
Back
Fore
SplineSet
500 486.279296875 m 1
 416.004882812 340.794921875 l 1
 500 350.861328125 l 1
 583.995117188 340.794921875 l 1
 500 486.279296875 l 1
500 934.1 m 1
 1000.65 66.9502 l 1
 500 126.95 l 1
 -0.649414 66.9502 l 1
 500 934.1 l 1
EndSplineSet
EndChar

StartChar: Omacron
Encoding: 332 332 236
Width: 1000
VWidth: 0
Flags: HW
LayerCount: 2
Back
Fore
SplineSet
500 502.897460938 m 1
 416.004882812 357.413085938 l 1
 500 372.513671875 l 1
 583.995117188 357.413085938 l 1
 500 502.897460938 l 1
500 934.1 m 1
 1000.65 66.9502 l 1
 500 156.95 l 1
 -0.649414 66.9502 l 1
 500 934.1 l 1
EndSplineSet
EndChar

StartChar: omacron
Encoding: 333 333 237
Width: 1000
VWidth: 0
Flags: HW
LayerCount: 2
Back
Fore
SplineSet
500 519.541992188 m 1
 416.004882812 374.05859375 l 1
 500 394.190429688 l 1
 583.995117188 374.05859375 l 1
 500 519.541992188 l 1
500 934.1 m 1
 1000.65 66.9502 l 1
 500 186.95 l 1
 -0.649414 66.9502 l 1
 500 934.1 l 1
EndSplineSet
EndChar

StartChar: Obreve
Encoding: 334 334 238
Width: 1000
VWidth: 0
Flags: HW
LayerCount: 2
Back
Fore
SplineSet
500 536.186523438 m 1
 416.004882812 390.703125 l 1
 500 415.868164062 l 1
 583.995117188 390.703125 l 1
 500 536.186523438 l 1
500 934.1 m 1
 1000.65 66.9502 l 1
 500 216.95 l 1
 -0.649414 66.9502 l 1
 500 934.1 l 1
EndSplineSet
EndChar

StartChar: obreve
Encoding: 335 335 239
Width: 1000
VWidth: 0
Flags: HW
LayerCount: 2
Back
Fore
SplineSet
500 569.475585938 m 1
 416.004882812 423.9921875 l 1
 500 454.190429688 l 1
 583.995117188 423.9921875 l 1
 500 569.475585938 l 1
500 934.1 m 1
 1000.65 66.9502 l 1
 500 246.95 l 1
 -0.649414 66.9502 l 1
 500 934.1 l 1
EndSplineSet
EndChar

StartChar: Ohungarumlaut
Encoding: 336 336 240
Width: 1000
VWidth: 0
Flags: HW
LayerCount: 2
Back
Fore
SplineSet
500 569.475585938 m 1
 416.004882812 423.9921875 l 1
 500 459.224609375 l 1
 583.995117188 423.9921875 l 1
 500 569.475585938 l 1
500 934.1 m 1
 1000.65 66.9502 l 1
 500 276.95 l 1
 -0.649414 66.9502 l 1
 500 934.1 l 1
EndSplineSet
EndChar

StartChar: ohungarumlaut
Encoding: 337 337 241
Width: 1000
VWidth: 0
Flags: HW
LayerCount: 2
Back
Fore
SplineSet
500 586.12109375 m 1
 416.004882812 440.63671875 l 1
 500 480.90234375 l 1
 583.995117188 440.63671875 l 1
 500 586.12109375 l 1
500 934.1 m 1
 1000.65 66.9502 l 1
 500 306.95 l 1
 -0.649414 66.9502 l 1
 500 934.1 l 1
EndSplineSet
EndChar

StartChar: OE
Encoding: 338 338 242
Width: 1000
VWidth: 0
Flags: HW
LayerCount: 2
Back
Fore
SplineSet
500 602.764648438 m 1
 416.004882812 457.280273438 l 1
 500 502.580078125 l 1
 583.995117188 457.280273438 l 1
 500 602.764648438 l 1
500 934.1 m 1
 1000.65 66.9502 l 1
 500 336.95 l 1
 -0.649414 66.9502 l 1
 500 934.1 l 1
EndSplineSet
EndChar

StartChar: oe
Encoding: 339 339 243
Width: 1000
VWidth: 0
Flags: HW
LayerCount: 2
Back
Fore
SplineSet
500 619.409179688 m 1
 416.004882812 473.92578125 l 1
 500 524.256835938 l 1
 583.995117188 473.92578125 l 1
 500 619.409179688 l 1
500 934.1 m 1
 1000.65 66.9502 l 1
 500 366.95 l 1
 -0.649414 66.9502 l 1
 500 934.1 l 1
EndSplineSet
EndChar

StartChar: Racute
Encoding: 340 340 244
Width: 1000
VWidth: 0
Flags: HW
LayerCount: 2
Back
Fore
SplineSet
500 450.907226562 m 1
 432.803710938 334.520507812 l 1
 500 338.545898438 l 1
 567.196289062 334.520507812 l 1
 500 450.907226562 l 1
500 934.1 m 1
 1000.65 66.9502 l 1
 500 96.9502 l 1
 -0.649414 66.9502 l 1
 500 934.1 l 1
EndSplineSet
EndChar

StartChar: racute
Encoding: 341 341 245
Width: 1000
VWidth: 0
Flags: HW
LayerCount: 2
Back
Fore
SplineSet
500 468.223632812 m 1
 432.803710938 351.8359375 l 1
 500 359.888671875 l 1
 567.196289062 351.8359375 l 1
 500 468.223632812 l 1
500 934.1 m 1
 1000.65 66.9502 l 1
 500 126.95 l 1
 -0.649414 66.9502 l 1
 500 934.1 l 1
EndSplineSet
EndChar

StartChar: Rcommaaccent
Encoding: 342 342 246
Width: 1000
VWidth: 0
Flags: HW
LayerCount: 2
Back
Fore
SplineSet
500 485.51171875 m 1
 432.803710938 369.124023438 l 1
 500 381.205078125 l 1
 567.196289062 369.124023438 l 1
 500 485.51171875 l 1
500 934.1 m 1
 1000.65 66.9502 l 1
 500 156.95 l 1
 -0.649414 66.9502 l 1
 500 934.1 l 1
EndSplineSet
EndChar

StartChar: rcommaaccent
Encoding: 343 343 247
Width: 1000
VWidth: 0
Flags: HW
LayerCount: 2
Back
Fore
SplineSet
500 502.827148438 m 1
 432.803710938 386.440429688 l 1
 500 402.545898438 l 1
 567.196289062 386.440429688 l 1
 500 502.827148438 l 1
500 934.1 m 1
 1000.65 66.9502 l 1
 500 186.95 l 1
 -0.649414 66.9502 l 1
 500 934.1 l 1
EndSplineSet
EndChar

StartChar: Rcaron
Encoding: 344 344 248
Width: 1000
VWidth: 0
Flags: HW
LayerCount: 2
Back
Fore
SplineSet
500 520.143554688 m 1
 432.803710938 403.756835938 l 1
 500 423.888671875 l 1
 567.196289062 403.756835938 l 1
 500 520.143554688 l 1
500 934.1 m 1
 1000.65 66.9502 l 1
 500 216.95 l 1
 -0.649414 66.9502 l 1
 500 934.1 l 1
EndSplineSet
EndChar

StartChar: rcaron
Encoding: 345 345 249
Width: 1000
VWidth: 0
Flags: HW
LayerCount: 2
Back
Fore
SplineSet
500 554.774414062 m 1
 432.803710938 438.387695312 l 1
 500 462.545898438 l 1
 567.196289062 438.387695312 l 1
 500 554.774414062 l 1
500 934.1 m 1
 1000.65 66.9502 l 1
 500 246.95 l 1
 -0.649414 66.9502 l 1
 500 934.1 l 1
EndSplineSet
EndChar

StartChar: Sacute
Encoding: 346 346 250
Width: 1000
VWidth: 0
Flags: HW
LayerCount: 2
Back
Fore
SplineSet
500 554.774414062 m 1
 432.803710938 438.387695312 l 1
 500 466.573242188 l 1
 567.196289062 438.387695312 l 1
 500 554.774414062 l 1
500 934.1 m 1
 1000.65 66.9502 l 1
 500 276.95 l 1
 -0.649414 66.9502 l 1
 500 934.1 l 1
EndSplineSet
EndChar

StartChar: sacute
Encoding: 347 347 251
Width: 1000
VWidth: 0
Flags: HW
LayerCount: 2
Back
Fore
SplineSet
500 572.090820312 m 1
 432.803710938 455.703125 l 1
 500 487.916015625 l 1
 567.196289062 455.703125 l 1
 500 572.090820312 l 1
500 934.1 m 1
 1000.65 66.9502 l 1
 500 306.95 l 1
 -0.649414 66.9502 l 1
 500 934.1 l 1
EndSplineSet
EndChar

StartChar: Scircumflex
Encoding: 348 348 252
Width: 1000
VWidth: 0
Flags: HW
LayerCount: 2
Back
Fore
SplineSet
500 589.405273438 m 1
 432.803710938 473.018554688 l 1
 500 509.2578125 l 1
 567.196289062 473.018554688 l 1
 500 589.405273438 l 1
500 934.1 m 1
 1000.65 66.9502 l 1
 500 336.95 l 1
 -0.649414 66.9502 l 1
 500 934.1 l 1
EndSplineSet
EndChar

StartChar: scircumflex
Encoding: 349 349 253
Width: 1000
VWidth: 0
Flags: HW
LayerCount: 2
Back
Fore
SplineSet
500 606.721679688 m 1
 432.803710938 490.334960938 l 1
 500 530.599609375 l 1
 567.196289062 490.334960938 l 1
 500 606.721679688 l 1
500 934.1 m 1
 1000.65 66.9502 l 1
 500 366.95 l 1
 -0.649414 66.9502 l 1
 500 934.1 l 1
EndSplineSet
EndChar

StartChar: question
Encoding: 63 63 254
Width: 1000
VWidth: 0
Flags: HW
LayerCount: 2
Back
Fore
SplineSet
0 1000 m 1
 1000 1000 l 1
 1000 0 l 1
 0 0 l 1
 0 1000 l 1
EndSplineSet
EndChar

StartChar: at
Encoding: 64 64 255
Width: 1000
VWidth: 0
Flags: HW
LayerCount: 2
Back
Fore
SplineSet
0 500 m 0
 0 776 224 1000 500 1000 c 0
 776 1000 1000 776 1000 500 c 0
 1000 224 776 0 500 0 c 0
 224 0 0 224 0 500 c 0
EndSplineSet
EndChar

StartChar: bracketleft
Encoding: 91 91 256
Width: 974
VWidth: 0
Flags: HW
LayerCount: 2
Back
Fore
SplineSet
48.931640625 952.958007812 m 5
 48.931640625 53.6572265625 l 5
 948.232421875 53.6572265625 l 5
 948.232421875 952.958007812 l 5
 48.931640625 952.958007812 l 5
9.83203125 992.057617188 m 1
 987.33203125 992.057617188 l 1
 987.33203125 14.5576171875 l 1
 9.83203125 14.5576171875 l 1
 9.83203125 992.057617188 l 1
EndSplineSet
EndChar

StartChar: backslash
Encoding: 92 92 257
Width: 1000
VWidth: 0
Flags: HW
LayerCount: 2
Back
Fore
SplineSet
40 500 m 4
 40 246.080078125 246.080078125 40 500 40 c 4
 753.919921875 40 960 246.080078125 960 500 c 4
 960 753.919921875 753.919921875 960 500 960 c 4
 246.080078125 960 40 753.919921875 40 500 c 4
0 500 m 0
 0 776 224 1000 500 1000 c 0
 776 1000 1000 776 1000 500 c 0
 1000 224 776 0 500 0 c 0
 224 0 0 224 0 500 c 0
EndSplineSet
EndChar

StartChar: bracketright
Encoding: 93 93 258
Width: 1000
VWidth: 0
Flags: HW
LayerCount: 2
Back
Fore
SplineSet
132 960.959960938 m 6
 81.2158203125 960.959960938 40 919.744140625 40 868.959960938 c 6
 40 132.040039062 l 6
 40 81.255859375 81.2158203125 40.0400390625 132 40.0400390625 c 6
 868 40.0400390625 l 6
 918.784179688 40.0400390625 960 81.255859375 960 132.040039062 c 6
 960 868.959960938 l 6
 960 919.744140625 918.784179688 960.959960938 868 960.959960938 c 6
 132 960.959960938 l 6
100 1001 m 2
 900 1001 l 2
 955.2 1001 1000 956.2 1000 901 c 2
 1000 100 l 2
 1000 44.8 955.2 0 900 0 c 2
 100 0 l 2
 44.8 0 0 44.8 0 100 c 2
 0 901 l 2
 0 956.2 44.8 1001 100 1001 c 2
EndSplineSet
EndChar

StartChar: asciicircum
Encoding: 94 94 259
Width: 1000
VWidth: 0
Flags: HW
LayerCount: 2
Back
Fore
SplineSet
224 960.959960938 m 6
 122.431640625 960.959960938 40 878.528320312 40 776.959960938 c 6
 40 224.040039062 l 6
 40 122.471679688 122.431640625 40.0400390625 224 40.0400390625 c 6
 776 40.0400390625 l 6
 877.568359375 40.0400390625 960 122.471679688 960 224.040039062 c 6
 960 776.959960938 l 6
 960 878.528320312 877.568359375 960.959960938 776 960.959960938 c 6
 224 960.959960938 l 6
200 1001 m 2
 800 1001 l 2
 910.4 1001 1000 911.4 1000 801 c 2
 1000 200 l 2
 1000 89.6 910.4 0 800 0 c 2
 200 0 l 2
 89.6 0 0 89.6 0 200 c 2
 0 801 l 2
 0 911.4 89.6 1001 200 1001 c 2
EndSplineSet
EndChar

StartChar: underscore
Encoding: 95 95 260
Width: 1000
VWidth: 0
Flags: HW
LayerCount: 2
Back
Fore
SplineSet
316 960.959960938 m 6
 163.6484375 960.959960938 40 837.311523438 40 684.959960938 c 6
 40 316.040039062 l 6
 40 163.688476562 163.6484375 40.0400390625 316 40.0400390625 c 6
 684 40.0400390625 l 6
 836.3515625 40.0400390625 960 163.688476562 960 316.040039062 c 6
 960 684.959960938 l 6
 960 837.311523438 836.3515625 960.959960938 684 960.959960938 c 6
 316 960.959960938 l 6
300 1001 m 2
 700 1001 l 2
 865.6 1001 1000 866.6 1000 701 c 2
 1000 300 l 2
 1000 134.4 865.6 0 700 0 c 2
 300 0 l 2
 134.4 0 0 134.4 0 300 c 2
 0 701 l 2
 0 866.6 134.4 1001 300 1001 c 2
EndSplineSet
EndChar

StartChar: grave
Encoding: 96 96 261
Width: 1000
VWidth: 0
Flags: HW
LayerCount: 2
Back
Fore
SplineSet
408 960.959960938 m 6
 204.864257812 960.959960938 40 796.095703125 40 592.959960938 c 6
 40 408.040039062 l 6
 40 204.904296875 204.864257812 40.0400390625 408 40.0400390625 c 6
 592 40.0400390625 l 6
 795.135742188 40.0400390625 960 204.904296875 960 408.040039062 c 6
 960 592.959960938 l 6
 960 796.095703125 795.135742188 960.959960938 592 960.959960938 c 6
 408 960.959960938 l 6
400 1001 m 2
 600 1001 l 2
 820.8 1001 1000 821.8 1000 601 c 2
 1000 400 l 2
 1000 179.2 820.8 0 600 0 c 2
 400 0 l 2
 179.2 0 0 179.2 0 400 c 2
 0 601 l 2
 0 821.8 179.2 1001 400 1001 c 2
EndSplineSet
EndChar
